<svg version="1.1" xmlns="http://www.w3.org/2000/svg" xmlns:xlink="http://www.w3.org/1999/xlink" style="display:6994C6 none;">
    
    <symbol viewBox="0 0 24 24" fill="none" id="telephone">
        <path d="M18.558 23.4686C18.3244 23.4679 18.0915 23.4423 17.8634 23.3921C13.5197 22.4936 9.51811 20.3869 6.31902 17.3144C3.18821 14.2351 1.01682 10.3145 0.0675746 6.02701C-0.0443532 5.49266 -0.0168817 4.93849 0.147346 4.41783C0.311574 3.89717 0.607031 3.42753 1.00529 3.0541L3.78371 0.379868C3.92563 0.245662 4.09424 0.14289 4.27856 0.0782584C4.46288 0.0136272 4.65876 -0.0114098 4.85341 0.00478142C5.05523 0.025837 5.25 0.0908523 5.424 0.195255C5.59801 0.299658 5.74703 0.440914 5.86058 0.609088L9.33361 5.74222C9.46385 5.9414 9.52672 6.17712 9.51297 6.41469C9.49921 6.65227 9.40956 6.87916 9.25721 7.06197L7.51375 9.14579C8.20811 10.6826 9.19146 12.0715 10.4103 13.237C11.6212 14.4448 13.0524 15.4092 14.6265 16.078L16.7867 14.3623C16.9682 14.2189 17.1889 14.1341 17.4197 14.1192C17.6505 14.1043 17.8803 14.16 18.0787 14.2789L23.323 17.6686C23.5029 17.7761 23.6563 17.9228 23.7714 18.098C23.8866 18.2731 23.9607 18.472 23.9881 18.6798C24.0155 18.8876 23.9955 19.0989 23.9296 19.2979C23.8638 19.4969 23.7537 19.6784 23.6078 19.8288L20.8988 22.51C20.5911 22.8162 20.2258 23.0585 19.8241 23.223C19.4224 23.3876 18.9921 23.471 18.558 23.4686ZM4.74227 1.3801L1.96385 4.05433C1.7398 4.2631 1.57396 4.52658 1.48261 4.81887C1.39127 5.11116 1.37758 5.4222 1.44289 5.72139C2.32554 9.74464 4.35448 13.4262 7.28453 16.3211C10.2951 19.2117 14.0608 21.1933 18.1482 22.0377C18.4575 22.1023 18.7781 22.0892 19.0812 21.9995C19.3843 21.9098 19.6603 21.7463 19.8847 21.5237L22.5936 18.8425L17.53 15.5709L15.21 17.4185C15.1212 17.4888 15.0165 17.5363 14.9051 17.5569C14.7937 17.5775 14.679 17.5705 14.5709 17.5366C12.6446 16.8269 10.8989 15.7002 9.45864 14.2372C7.96896 12.8461 6.81263 11.1365 6.07591 9.23609C6.04475 9.12104 6.04371 8.9999 6.07291 8.88433C6.1021 8.76877 6.16055 8.66266 6.24262 8.57621L8.11805 6.33264L4.74227 1.3801Z" fill="currentColor"/>
    </symbol>

    <symbol viewBox="0 0 48 49" fill="none" id="airplane">
        <path d="M40.2688 43.8524C40.1125 43.8526 39.9608 43.7994 39.8389 43.7016L20.2441 27.9424C20.2249 27.9267 20.2064 27.9102 20.1892 27.8931L5.72836 13.4351C3.6753 11.3827 1.91602 9.05618 0.500526 6.52181C0.0805973 5.765 -0.08155 4.89211 0.0385852 4.03503C0.15872 3.17794 0.55461 2.38324 1.16644 1.77099C1.77826 1.15875 2.57277 0.762234 3.42992 0.641364C4.28707 0.520494 5.16029 0.681835 5.91761 1.10101C8.45364 2.51628 10.7815 4.27569 12.835 6.32916L27.2973 20.7865C27.3144 20.8036 27.3309 20.8221 27.3466 20.8413L43.1083 40.4335C43.2143 40.5652 43.2679 40.7314 43.2588 40.9002C43.2497 41.069 43.1785 41.2285 43.0589 41.3481L40.7536 43.6529C40.69 43.7165 40.6144 43.7669 40.5311 43.8012C40.4479 43.8354 40.3588 43.8528 40.2688 43.8524ZM21.1328 26.8969L40.2187 42.2475L41.6539 40.8126L26.3009 21.7298L11.8668 7.29856C9.90331 5.33531 7.67768 3.65298 5.25316 2.29938C4.75641 2.02443 4.18366 1.91858 3.62142 1.99782C3.05919 2.07705 2.53802 2.33708 2.13664 2.7386C1.73527 3.14013 1.4755 3.66134 1.39657 4.22351C1.31764 4.78568 1.42385 5.35826 1.69914 5.85475C3.05256 8.27847 4.73503 10.5032 6.69863 12.4657L21.1328 26.8969Z" fill="currentColor"/>
        <path d="M41.0327 39.6383C40.8971 39.6382 40.7645 39.598 40.6518 39.5227C40.5391 39.4473 40.4512 39.3403 40.3993 39.215C40.3474 39.0898 40.3338 38.9519 40.3603 38.819C40.3867 38.686 40.452 38.5639 40.5479 38.468L46.3448 32.6722L45.0701 31.3977C44.9076 31.237 44.7079 31.1188 44.4888 31.0538C44.2696 30.9887 44.0378 30.9787 43.8139 31.0248L35.6506 32.7503C35.4726 32.788 35.287 32.7534 35.1345 32.6542C34.9821 32.555 34.8753 32.3993 34.8377 32.2214C34.8 32.0435 34.8346 31.8579 34.9338 31.7055C35.033 31.5531 35.1887 31.4463 35.3667 31.4087L43.53 29.6831C43.9774 29.5914 44.4405 29.6115 44.8782 29.7415C45.316 29.8715 45.7149 30.1074 46.0397 30.4283L47.7992 32.1875C47.9278 32.316 48 32.4904 48 32.6722C48 32.854 47.9278 33.0283 47.7992 33.1569L41.5175 39.4374C41.454 39.5013 41.3784 39.5519 41.2952 39.5864C41.212 39.6209 41.1228 39.6385 41.0327 39.6383Z" fill="currentColor"/>
        <path d="M32.0773 48.5918C31.8955 48.5918 31.7211 48.5195 31.5925 48.3909L29.833 46.6317C29.5118 46.3072 29.2756 45.9083 29.1456 45.4706C29.0156 45.0329 28.9957 44.5698 29.0876 44.1226L30.8136 35.9643C30.8512 35.7864 30.958 35.6307 31.1105 35.5315C31.2629 35.4323 31.4485 35.3977 31.6265 35.4354C31.8044 35.473 31.9601 35.5798 32.0593 35.7322C32.1586 35.8846 32.1931 36.0702 32.1555 36.2481L30.4296 44.4098C30.3835 44.6335 30.3935 44.8651 30.4586 45.0839C30.5237 45.3028 30.6418 45.5022 30.8026 45.6644L32.0773 46.9396L37.8743 41.1438C38.0036 41.0189 38.1768 40.9498 38.3566 40.9513C38.5364 40.9529 38.7084 41.025 38.8355 41.1521C38.9627 41.2792 39.0348 41.4512 39.0363 41.6309C39.0379 41.8107 38.9688 41.9839 38.8439 42.1132L32.5621 48.3937C32.4331 48.5212 32.2588 48.5925 32.0773 48.5918Z" fill="currentColor"/>
        <path d="M43.7254 45.0035C43.5436 45.0035 43.3692 44.9312 43.2406 44.8027L34.4903 36.0507C34.3654 35.9214 34.2963 35.7482 34.2979 35.5684C34.2994 35.3887 34.3716 35.2167 34.4987 35.0896C34.6258 34.9625 34.7978 34.8904 34.9776 34.8889C35.1574 34.8873 35.3306 34.9564 35.4599 35.0813L44.2102 43.8333C44.3061 43.9291 44.3714 44.0513 44.3978 44.1843C44.4243 44.3172 44.4107 44.455 44.3588 44.5803C44.3069 44.7055 44.2191 44.8126 44.1063 44.8879C43.9936 44.9633 43.861 45.0035 43.7254 45.0035Z" fill="currentColor"/>
        <path d="M27.1457 22.3708C26.9979 22.3709 26.854 22.3232 26.7355 22.2348C26.617 22.1464 26.5303 22.0222 26.4882 21.8805C26.4461 21.7388 26.4509 21.5873 26.5019 21.4486C26.553 21.3099 26.6474 21.1914 26.7713 21.1107L42.642 10.7909L39.0763 7.22591C38.8332 6.98414 38.5263 6.81646 38.1915 6.74242C37.8566 6.66838 37.5076 6.69102 37.1852 6.80771L18.682 13.5517C18.5115 13.6127 18.3237 13.6038 18.1596 13.5269C17.9956 13.4499 17.8687 13.3112 17.8067 13.141C17.7446 12.9708 17.7525 12.783 17.8285 12.6186C17.9045 12.4542 18.0425 12.3265 18.2123 12.2635L36.7148 5.51884C37.2826 5.31366 37.8971 5.27399 38.4866 5.40447C39.0761 5.53495 39.6164 5.8302 40.0446 6.25583L44.2095 10.42C44.2817 10.4922 44.3368 10.5796 44.3709 10.6758C44.4049 10.772 44.4171 10.8745 44.4065 10.976C44.3958 11.0775 44.3626 11.1754 44.3093 11.2624C44.2561 11.3495 44.184 11.4235 44.0985 11.4792L27.5194 22.2598C27.4082 22.3322 27.2784 22.3707 27.1457 22.3708Z" fill="currentColor"/>
        <path d="M21.7307 12.4033C21.5489 12.4033 21.3745 12.331 21.2459 12.2024L19.7668 10.7237C19.6394 10.5963 19.5384 10.4452 19.4694 10.2788C19.4005 10.1124 19.365 9.93404 19.365 9.75393C19.365 9.57382 19.4005 9.39548 19.4694 9.22909C19.5384 9.0627 19.6394 8.91152 19.7668 8.78419L21.1636 7.38906C21.4249 7.13958 21.7723 7.00037 22.1336 7.00037C22.4948 7.00037 22.8422 7.13958 23.1035 7.38906L25.6804 9.96611C25.8053 10.0954 25.8744 10.2686 25.8728 10.4483C25.8713 10.6281 25.7992 10.8 25.672 10.9272C25.5449 11.0543 25.3729 11.1264 25.1931 11.1279C25.0133 11.1295 24.8401 11.0604 24.7108 10.9355L22.1332 8.35845L20.7364 9.75496L22.2162 11.233C22.3121 11.3289 22.3773 11.4511 22.4038 11.584C22.4302 11.717 22.4166 11.8548 22.3648 11.9801C22.3129 12.1053 22.225 12.2124 22.1123 12.2877C21.9995 12.3631 21.867 12.4033 21.7314 12.4033H21.7307Z" fill="currentColor"/>
        <path d="M10.3054 45.0035C10.1236 45.0035 9.94921 44.9312 9.82065 44.8027L5.65566 40.6392C5.22953 40.2112 4.93396 39.6709 4.80343 39.0813C4.67291 38.4917 4.71283 37.8771 4.91853 37.3094L11.6645 18.8107C11.7276 18.6408 11.8552 18.5029 12.0197 18.4269C12.1842 18.3509 12.372 18.343 12.5422 18.4051C12.7125 18.4671 12.8512 18.594 12.9282 18.758C13.0051 18.922 13.014 19.1097 12.953 19.2803L6.20697 37.779C6.09015 38.1013 6.06744 38.4501 6.14151 38.7848C6.21558 39.1195 6.38336 39.4262 6.62525 39.6691L10.1909 43.2341L20.5136 27.3672C20.5621 27.2905 20.6254 27.2241 20.6998 27.172C20.7741 27.1198 20.8581 27.083 20.9469 27.0636C21.0356 27.0442 21.1273 27.0427 21.2167 27.059C21.306 27.0754 21.3913 27.1093 21.4674 27.1588C21.5435 27.2084 21.609 27.2726 21.6601 27.3476C21.7113 27.4227 21.7469 27.5072 21.7651 27.5962C21.7833 27.6851 21.7836 27.7768 21.7661 27.8659C21.7485 27.955 21.7134 28.0398 21.6628 28.1152L10.8801 44.6916C10.8244 44.7771 10.7503 44.8491 10.6632 44.9024C10.5761 44.9556 10.4783 44.9888 10.3768 44.9994C10.3531 45.0021 10.3293 45.0035 10.3054 45.0035Z" fill="currentColor"/>
        <path d="M9.85015 26.4781C9.6683 26.478 9.49392 26.4058 9.36535 26.2772L6.78778 23.6994C6.53068 23.4423 6.38625 23.0936 6.38625 22.73C6.38625 22.3665 6.53068 22.0178 6.78778 21.7607L8.18456 20.3641C8.44575 20.1145 8.79316 19.9752 9.1545 19.9752C9.51583 19.9752 9.86324 20.1145 10.1244 20.3641L11.6035 21.8422C11.7324 21.9708 11.805 22.1453 11.8053 22.3273C11.8055 22.5094 11.7334 22.6841 11.6049 22.813C11.4763 22.9419 11.3018 23.0145 11.1197 23.0147C10.9376 23.015 10.7628 22.9429 10.6339 22.8144L9.15415 21.3335L7.75737 22.73L10.3349 25.3078C10.4308 25.4037 10.4961 25.5258 10.5225 25.6588C10.549 25.7917 10.5354 25.9296 10.4835 26.0548C10.4316 26.1801 10.3438 26.2871 10.231 26.3625C10.1183 26.4378 9.98574 26.478 9.85015 26.4781Z" fill="currentColor"/>
    </symbol>

    <symbol viewBox="0 0 48 25" fill="none" id="car">
        <path d="M31.511 20.1014H16.4983C16.3164 20.1014 16.142 20.0292 16.0134 19.9006C15.8848 19.7721 15.8126 19.5977 15.8126 19.4159C15.8126 19.234 15.8848 19.0596 16.0134 18.9311C16.142 18.8025 16.3164 18.7303 16.4983 18.7303H31.511C31.6928 18.7303 31.8673 18.8025 31.9959 18.9311C32.1245 19.0596 32.1967 19.234 32.1967 19.4159C32.1967 19.5977 32.1245 19.7721 31.9959 19.9006C31.8673 20.0292 31.6928 20.1014 31.511 20.1014Z" fill="currentColor"/>
        <path d="M45.9188 20.1014H40.721C40.5391 20.1014 40.3647 20.0292 40.2361 19.9006C40.1075 19.7721 40.0353 19.5977 40.0353 19.4159C40.0353 19.234 40.1075 19.0596 40.2361 18.9311C40.3647 18.8025 40.5391 18.7303 40.721 18.7303H45.9188C46.107 18.7301 46.2874 18.6553 46.4205 18.5222C46.5535 18.3892 46.6284 18.2088 46.6285 18.0207V15.0726C46.6276 14.2896 46.3685 13.5287 45.8914 12.9078C45.4143 12.2868 44.7457 11.8405 43.9892 11.6378L35.3723 9.35273C35.2472 9.31949 35.134 9.25151 35.0459 9.15665C34.9862 9.09221 29.0204 2.70797 25.5383 1.88937C25.4401 1.86613 25.3394 1.85553 25.2386 1.85784L11.4356 1.85784C10.7205 1.85921 10.0339 2.1385 9.52102 2.63667L2.10143 9.94371C1.84765 10.1896 1.65123 10.4885 1.52619 10.819C1.40114 11.1495 1.35054 11.5035 1.37799 11.8558L1.96223 18.0865C1.97818 18.2626 2.05956 18.4263 2.19031 18.5453C2.32106 18.6644 2.49169 18.7301 2.66853 18.7296H7.27457C7.45644 18.7296 7.63085 18.8018 7.75945 18.9304C7.88805 19.059 7.9603 19.2333 7.9603 19.4152C7.9603 19.597 7.88805 19.7714 7.75945 19.9C7.63085 20.0285 7.45644 20.1008 7.27457 20.1008H2.66922C2.15036 20.1027 1.64966 19.9099 1.26609 19.5605C0.882518 19.2112 0.643983 18.7307 0.597629 18.214L0.012702 11.9751C-0.0328895 11.4211 0.0445946 10.8639 0.239607 10.3433C0.434619 9.82276 0.742336 9.35175 1.14073 8.964L8.55963 1.65902C9.32961 0.909629 10.361 0.48918 11.4356 0.486652L25.2393 0.486652C25.4493 0.483275 25.659 0.506309 25.8633 0.555212C29.4682 1.4026 34.9554 7.06285 35.914 8.07547L44.3423 10.3084C45.391 10.5898 46.3176 11.2089 46.9788 12.0698C47.64 12.9308 47.9989 13.9857 48 15.0713V18.0193C47.9998 18.5712 47.7805 19.1005 47.3903 19.4909C47.0001 19.8813 46.4708 20.1009 45.9188 20.1014Z" fill="currentColor"/>
        <path d="M35.5485 9.37535L2.39904 9.37535C2.21717 9.37535 2.04276 9.30312 1.91416 9.17454C1.78556 9.04597 1.71331 8.87159 1.71331 8.68976C1.71331 8.50793 1.78556 8.33354 1.91416 8.20497C2.04276 8.0764 2.21717 8.00416 2.39904 8.00416L35.5485 8.00416C35.7304 8.00416 35.9048 8.0764 36.0334 8.20497C36.162 8.33354 36.2343 8.50793 36.2343 8.68976C36.2343 8.87159 36.162 9.04597 36.0334 9.17454C35.9048 9.30312 35.7304 9.37535 35.5485 9.37535Z" fill="currentColor"/>
        <path d="M36.1143 24.7086C35.0673 24.7086 34.0438 24.3982 33.1732 23.8167C32.3027 23.2351 31.6242 22.4085 31.2235 21.4415C30.8228 20.4744 30.7179 19.4102 30.9221 18.3835C31.1263 17.3569 31.6304 16.4138 32.3707 15.6735C33.111 14.9333 34.0542 14.4292 35.0811 14.2249C36.1079 14.0206 37.1723 14.1253 38.1397 14.5258C39.107 14.9263 39.9338 15.6045 40.5156 16.4748C41.0974 17.3451 41.408 18.3684 41.4081 19.4152C41.4066 20.8185 40.8485 22.164 39.856 23.1564C38.8636 24.1487 37.5179 24.707 36.1143 24.7086ZM36.1143 15.4936C35.3385 15.4936 34.5801 15.7236 33.9351 16.1545C33.2901 16.5854 32.7873 17.1979 32.4905 17.9144C32.1936 18.631 32.1159 19.4195 32.2673 20.1802C32.4186 20.9409 32.7922 21.6397 33.3407 22.1881C33.8893 22.7366 34.5882 23.1101 35.3491 23.2614C36.1099 23.4127 36.8986 23.3351 37.6153 23.0382C38.332 22.7414 38.9446 22.2388 39.3756 21.5939C39.8066 20.949 40.0366 20.1908 40.0366 19.4152C40.0355 18.3754 39.622 17.3786 38.8866 16.6434C38.1512 15.9082 37.1542 15.4947 36.1143 15.4936Z" fill="currentColor"/>
        <path d="M36.1143 21.897C35.6233 21.897 35.1434 21.7515 34.7352 21.4787C34.3269 21.206 34.0088 20.8184 33.8209 20.3649C33.633 19.9114 33.5838 19.4124 33.6796 18.931C33.7754 18.4496 34.0118 18.0073 34.359 17.6602C34.7062 17.3131 35.1485 17.0768 35.63 16.981C36.1115 16.8852 36.6106 16.9344 37.0642 17.1222C37.5178 17.3101 37.9055 17.6282 38.1783 18.0363C38.451 18.4445 38.5966 18.9243 38.5966 19.4152C38.5959 20.0732 38.3341 20.704 37.8687 21.1693C37.4034 21.6346 36.7724 21.8963 36.1143 21.897ZM36.1143 18.3045C35.8946 18.3045 35.6798 18.3696 35.4971 18.4917C35.3144 18.6137 35.172 18.7872 35.0879 18.9901C35.0039 19.1931 34.9819 19.4164 35.0247 19.6318C35.0676 19.8473 35.1734 20.0452 35.3288 20.2005C35.4841 20.3558 35.6821 20.4616 35.8975 20.5045C36.113 20.5473 36.3364 20.5253 36.5394 20.4413C36.7424 20.3572 36.9159 20.2149 37.0379 20.0322C37.16 19.8496 37.2252 19.6348 37.2252 19.4152C37.2246 19.1208 37.1074 18.8387 36.8991 18.6307C36.6909 18.4226 36.4087 18.3056 36.1143 18.3052V18.3045Z" fill="currentColor"/>
        <path d="M11.8847 21.897C11.3938 21.897 10.9138 21.7515 10.5056 21.4787C10.0974 21.206 9.77922 20.8184 9.59134 20.3649C9.40346 19.9114 9.3543 19.4124 9.45008 18.931C9.54586 18.4496 9.78228 18.0073 10.1294 17.6602C10.4766 17.3131 10.9189 17.0768 11.4004 16.981C11.882 16.8852 12.3811 16.9344 12.8347 17.1222C13.2883 17.3101 13.6759 17.6282 13.9487 18.0363C14.2215 18.4445 14.3671 18.9243 14.3671 19.4152C14.3663 20.0732 14.1046 20.704 13.6392 21.1693C13.1738 21.6346 12.5429 21.8963 11.8847 21.897ZM11.8847 18.3045C11.665 18.3045 11.4502 18.3696 11.2676 18.4917C11.0849 18.6137 10.9425 18.7872 10.8584 18.9901C10.7743 19.1931 10.7523 19.4164 10.7952 19.6318C10.8381 19.8473 10.9439 20.0452 11.0992 20.2005C11.2546 20.3558 11.4525 20.4616 11.668 20.5045C11.8835 20.5473 12.1069 20.5253 12.3098 20.4413C12.5128 20.3572 12.6863 20.2149 12.8084 20.0322C12.9305 19.8496 12.9956 19.6348 12.9956 19.4152C12.9951 19.1208 12.8778 18.8387 12.6696 18.6307C12.4614 18.4226 12.1791 18.3056 11.8847 18.3052V18.3045Z" fill="currentColor"/>
        <path d="M11.8847 24.7086C10.8377 24.7086 9.81426 24.3982 8.94371 23.8167C8.07316 23.2351 7.39463 22.4085 6.99393 21.4415C6.59324 20.4744 6.48836 19.4102 6.69257 18.3835C6.89678 17.3569 7.4009 16.4138 8.14118 15.6735C8.88147 14.9333 9.82467 14.4292 10.8515 14.2249C11.8784 14.0206 12.9428 14.1253 13.9101 14.5258C14.8774 14.9263 15.7043 15.6045 16.286 16.4748C16.8678 17.3451 17.1784 18.3684 17.1786 19.4152C17.1771 20.8185 16.6189 22.164 15.6265 23.1564C14.634 24.1487 13.2884 24.707 11.8847 24.7086ZM11.8847 15.4936C11.109 15.4936 10.3506 15.7236 9.70557 16.1545C9.06054 16.5854 8.55781 17.1979 8.26093 17.9144C7.96406 18.631 7.88638 19.4195 8.03772 20.1802C8.18907 20.9409 8.56264 21.6397 9.11119 22.1881C9.65975 22.7366 10.3586 23.1101 11.1195 23.2614C11.8804 23.4127 12.669 23.3351 13.3858 23.0382C14.1025 22.7414 14.7151 22.2388 15.1461 21.5939C15.5771 20.949 15.8071 20.1908 15.8071 19.4152C15.806 18.3754 15.3924 17.3786 14.6571 16.6434C13.9217 15.9082 12.9247 15.4947 11.8847 15.4936Z" fill="currentColor"/>
        <path d="M18.9731 9.37536C18.7912 9.37536 18.6168 9.30313 18.4882 9.17455C18.3596 9.04598 18.2874 8.8716 18.2874 8.68976V1.17225C18.2874 0.990417 18.3596 0.816034 18.4882 0.687461C18.6168 0.558887 18.7912 0.486655 18.9731 0.486655C19.155 0.486655 19.3294 0.558887 19.458 0.687461C19.5866 0.816034 19.6588 0.990417 19.6588 1.17225V8.68976C19.6588 8.8716 19.5866 9.04598 19.458 9.17455C19.3294 9.30313 19.155 9.37536 18.9731 9.37536Z" fill="currentColor"/>
        <path d="M24.6852 14.6544H22.628C22.4462 14.6544 22.2718 14.5822 22.1432 14.4536C22.0146 14.325 21.9423 14.1507 21.9423 13.9688C21.9423 13.787 22.0146 13.6126 22.1432 13.484C22.2718 13.3555 22.4462 13.2832 22.628 13.2832H24.6852C24.8671 13.2832 25.0415 13.3555 25.1701 13.484C25.2987 13.6126 25.371 13.787 25.371 13.9688C25.371 14.1507 25.2987 14.325 25.1701 14.4536C25.0415 14.5822 24.8671 14.6544 24.6852 14.6544Z" fill="currentColor"/>
    </symbol>

    <symbol viewBox="0 0 48 26" fill="none" id="train">
        <path d="M34.8974 18.0553C34.6635 18.0553 34.4256 18.0518 34.1842 18.047L0.935998 18.047C0.754136 18.047 0.579722 17.9748 0.451125 17.8462C0.322529 17.7177 0.250284 17.5433 0.250284 17.3615L0.250284 0.740401C0.250284 0.558576 0.322529 0.384198 0.451125 0.255628C0.579722 0.127058 0.754136 0.0548267 0.935998 0.0548267L34.1931 0.0548267C34.2451 0.0549074 34.2968 0.0608881 34.3474 0.0726524C34.752 0.16589 44.2786 2.43651 47.208 9.4897C47.6337 10.4845 47.7745 11.578 47.6146 12.6481C47.5611 13.1187 47.4151 13.5741 47.1851 13.9881C46.955 14.4021 46.6454 14.7666 46.2741 15.0607C46.1527 15.1628 42.5691 18.0546 34.8974 18.0553ZM1.62171 16.6766L34.2117 16.6766C34.4427 16.6821 34.6711 16.6841 34.8974 16.6841C42.085 16.6841 45.4025 14.0104 45.4361 13.9802C45.6708 13.7905 45.8651 13.5556 46.0074 13.2895C46.1497 13.0233 46.2371 12.7313 46.2645 12.4308C46.3843 11.6119 46.2736 10.7758 45.9449 10.0162C43.4139 3.9201 34.9824 1.64605 34.1143 1.42666L1.62171 1.42666L1.62171 16.6766Z" fill="currentColor"/>
        <path d="M46.6498 10.6723L34.1959 10.6723C34.014 10.6723 33.8396 10.6001 33.711 10.4715C33.5824 10.3429 33.5102 10.1686 33.5102 9.98674V0.736966C33.5102 0.55514 33.5824 0.380761 33.711 0.252191C33.8396 0.123621 34.014 0.0513916 34.1959 0.0513916C34.3777 0.0513916 34.5522 0.123621 34.6808 0.252191C34.8093 0.380761 34.8816 0.55514 34.8816 0.736966V9.30116L46.6498 9.30116C46.8317 9.30116 47.0061 9.37339 47.1347 9.50196C47.2633 9.63053 47.3355 9.80491 47.3355 9.98674C47.3355 10.1686 47.2633 10.3429 47.1347 10.4715C47.0061 10.6001 46.8317 10.6723 46.6498 10.6723Z" fill="currentColor"/>
        <path d="M14.0297 18.0477C13.8478 18.0477 13.6734 17.9755 13.5448 17.8469C13.4162 17.7184 13.344 17.544 13.344 17.3622L13.344 0.740401C13.344 0.558576 13.4162 0.384198 13.5448 0.255628C13.6734 0.127058 13.8478 0.0548267 14.0297 0.0548267C14.2116 0.0548267 14.386 0.127058 14.5146 0.255628C14.6432 0.384198 14.7154 0.558576 14.7154 0.740401L14.7154 17.3622C14.7154 17.544 14.6432 17.7184 14.5146 17.8469C14.386 17.9755 14.2116 18.0477 14.0297 18.0477Z" fill="currentColor"/>
        <path d="M10.2761 8.94946L4.60596 8.94946C4.4241 8.94946 4.24969 8.87723 4.12109 8.74866C3.99249 8.62009 3.92025 8.44571 3.92025 8.26389L3.92025 4.78939C3.92025 4.60757 3.99249 4.43319 4.12109 4.30462C4.24969 4.17605 4.4241 4.10382 4.60596 4.10382L10.2761 4.10382C10.458 4.10382 10.6324 4.17605 10.761 4.30462C10.8896 4.43319 10.9618 4.60757 10.9618 4.78939L10.9618 8.26389C10.9618 8.44571 10.8896 8.62009 10.761 8.74866C10.6324 8.87723 10.458 8.94946 10.2761 8.94946ZM5.29168 7.57831L9.59042 7.57831L9.59042 5.47497L5.29168 5.47497V7.57831Z" fill="currentColor"/>
        <path d="M23.0921 8.94946H17.4206C17.2387 8.94946 17.0643 8.87723 16.9357 8.74866C16.8071 8.62009 16.7349 8.44571 16.7349 8.26389V4.78939C16.7349 4.60757 16.8071 4.43319 16.9357 4.30462C17.0643 4.17605 17.2387 4.10382 17.4206 4.10382L23.0921 4.10382C23.274 4.10382 23.4484 4.17605 23.577 4.30462C23.7056 4.43319 23.7778 4.60757 23.7778 4.78939V8.26389C23.7778 8.44571 23.7056 8.62009 23.577 8.74866C23.4484 8.87723 23.274 8.94946 23.0921 8.94946ZM18.1063 7.57831L22.4064 7.57831V5.47497L18.1063 5.47497V7.57831Z" fill="currentColor"/>
        <path d="M46.3749 14.6747L0.934644 14.6747C0.752781 14.6747 0.578367 14.6025 0.44977 14.4739C0.321174 14.3453 0.248929 14.1709 0.248929 13.9891C0.248929 13.8073 0.321174 13.6329 0.44977 13.5043C0.578367 13.3758 0.752781 13.3035 0.934644 13.3035L46.3749 13.3035C46.5567 13.3035 46.7311 13.3758 46.8597 13.5043C46.9883 13.6329 47.0606 13.8073 47.0606 13.9891C47.0606 14.1709 46.9883 14.3453 46.8597 14.4739C46.7311 14.6025 46.5567 14.6747 46.3749 14.6747Z" fill="currentColor"/>
        <path d="M30.672 14.6747L26.4837 14.6747C26.3018 14.6747 26.1274 14.6025 25.9988 14.4739C25.8702 14.3453 25.798 14.1709 25.798 13.9891L25.798 5.98161C25.798 5.79978 25.8702 5.6254 25.9988 5.49683C26.1274 5.36826 26.3018 5.29603 26.4837 5.29603L30.672 5.29603C30.8539 5.29603 31.0283 5.36826 31.1569 5.49683C31.2855 5.6254 31.3577 5.79978 31.3577 5.98161L31.3577 13.9891C31.3577 14.1709 31.2855 14.3453 31.1569 14.4739C31.0283 14.6025 30.8539 14.6747 30.672 14.6747ZM27.1694 13.3035L29.9863 13.3035L29.9863 6.66718H27.1694L27.1694 13.3035Z" fill="currentColor"/>
        <path d="M31.3762 20.5295C30.6757 20.5288 30.004 20.2503 29.5086 19.7551C29.0131 19.2599 28.7344 18.5884 28.7335 17.888V17.3622C28.7335 17.1803 28.8057 17.006 28.9343 16.8774C29.0629 16.7488 29.2373 16.6766 29.4192 16.6766C29.601 16.6766 29.7755 16.7488 29.9041 16.8774C30.0327 17.006 30.1049 17.1803 30.1049 17.3622V17.8901C30.1126 18.222 30.2499 18.5377 30.4874 18.7697C30.7249 19.0017 31.0438 19.1316 31.3759 19.1316C31.7079 19.1316 32.0268 19.0017 32.2643 18.7697C32.5018 18.5377 32.6391 18.222 32.6468 17.8901V17.3622C32.6468 17.1803 32.7191 17.006 32.8477 16.8774C32.9763 16.7488 33.1507 16.6766 33.3326 16.6766C33.5144 16.6766 33.6888 16.7488 33.8174 16.8774C33.946 17.006 34.0183 17.1803 34.0183 17.3622V17.8901C34.017 18.5901 33.7382 19.261 33.2429 19.7558C32.7476 20.2505 32.0764 20.5288 31.3762 20.5295Z" fill="currentColor"/>
        <path d="M19.6958 20.5295C18.9953 20.5288 18.3237 20.2503 17.8284 19.755C17.3331 19.2598 17.0545 18.5884 17.0537 17.888V17.3622C17.0537 17.1803 17.126 17.006 17.2546 16.8774C17.3832 16.7488 17.5576 16.6766 17.7394 16.6766C17.9213 16.6766 18.0957 16.7488 18.2243 16.8774C18.3529 17.006 18.4252 17.1803 18.4252 17.3622V17.8901C18.4252 18.227 18.559 18.5501 18.7973 18.7883C19.0356 19.0266 19.3588 19.1604 19.6958 19.1604C20.0328 19.1604 20.356 19.0266 20.5943 18.7883C20.8326 18.5501 20.9664 18.227 20.9664 17.8901V17.3622C20.9664 17.1803 21.0387 17.006 21.1673 16.8774C21.2959 16.7488 21.4703 16.6766 21.6521 16.6766C21.834 16.6766 22.0084 16.7488 22.137 16.8774C22.2656 17.006 22.3379 17.1803 22.3379 17.3622V17.8901C22.3366 18.5901 22.0577 19.261 21.5625 19.7558C21.0672 20.2505 20.3959 20.5288 19.6958 20.5295Z" fill="currentColor"/>
        <path d="M8.01736 20.5295C7.31687 20.5288 6.64527 20.2503 6.14995 19.755C5.65462 19.2598 5.37603 18.5884 5.3753 17.888V17.3622C5.3753 17.1803 5.44755 17.006 5.57615 16.8774C5.70474 16.7488 5.87916 16.6766 6.06102 16.6766C6.24288 16.6766 6.41729 16.7488 6.54589 16.8774C6.67449 17.006 6.74673 17.1803 6.74673 17.3622V17.8901C6.74673 18.227 6.8806 18.5501 7.11889 18.7883C7.35718 19.0266 7.68037 19.1604 8.01736 19.1604C8.35435 19.1604 8.67754 19.0266 8.91583 18.7883C9.15412 18.5501 9.28799 18.227 9.28799 17.8901V17.3622C9.28799 17.1803 9.36023 17.006 9.48883 16.8774C9.61743 16.7488 9.79184 16.6766 9.9737 16.6766C10.1556 16.6766 10.33 16.7488 10.4586 16.8774C10.5872 17.006 10.6594 17.1803 10.6594 17.3622V17.8901C10.6581 18.5901 10.3793 19.261 9.88405 19.7558C9.38879 20.2505 8.7175 20.5288 8.01736 20.5295Z" fill="currentColor"/>
        <path d="M47.3143 23.0682L0.685714 23.0682C0.503852 23.0682 0.329437 22.996 0.200841 22.8674C0.0722446 22.7388 0 22.5645 0 22.3826C0 22.2008 0.0722446 22.0264 0.200841 21.8979C0.329437 21.7693 0.503852 21.6971 0.685714 21.6971L47.3143 21.6971C47.4961 21.6971 47.6706 21.7693 47.7992 21.8979C47.9278 22.0264 48 22.2008 48 22.3826C48 22.5645 47.9278 22.7388 47.7992 22.8674C47.6706 22.996 47.4961 23.0682 47.3143 23.0682Z" fill="currentColor"/>
        <path d="M39.0638 25.1434C38.8819 25.1434 38.7075 25.0712 38.5789 24.9426C38.4503 24.8141 38.3781 24.6397 38.3781 24.4579V22.3826C38.3781 22.2008 38.4503 22.0264 38.5789 21.8979C38.7075 21.7693 38.8819 21.6971 39.0638 21.6971C39.2457 21.6971 39.4201 21.7693 39.5487 21.8979C39.6773 22.0264 39.7495 22.2008 39.7495 22.3826V24.4579C39.7495 24.6397 39.6773 24.8141 39.5487 24.9426C39.4201 25.0712 39.2457 25.1434 39.0638 25.1434Z" fill="currentColor"/>
        <path d="M34.0471 25.1434C33.8652 25.1434 33.6908 25.0712 33.5622 24.9426C33.4336 24.8141 33.3614 24.6397 33.3614 24.4579V22.3826C33.3614 22.2008 33.4336 22.0264 33.5622 21.8979C33.6908 21.7693 33.8652 21.6971 34.0471 21.6971C34.2289 21.6971 34.4034 21.7693 34.5319 21.8979C34.6605 22.0264 34.7328 22.2008 34.7328 22.3826V24.4579C34.7328 24.6397 34.6605 24.8141 34.5319 24.9426C34.4034 25.0712 34.2289 25.1434 34.0471 25.1434Z" fill="currentColor"/>
        <path d="M29.0311 25.1434C28.8492 25.1434 28.6748 25.0712 28.5462 24.9426C28.4176 24.8141 28.3454 24.6397 28.3454 24.4579V22.3826C28.3454 22.2008 28.4176 22.0264 28.5462 21.8979C28.6748 21.7693 28.8492 21.6971 29.0311 21.6971C29.2129 21.6971 29.3874 21.7693 29.516 21.8979C29.6446 22.0264 29.7168 22.2008 29.7168 22.3826V24.4579C29.7168 24.6397 29.6446 24.8141 29.516 24.9426C29.3874 25.0712 29.2129 25.1434 29.0311 25.1434Z" fill="currentColor"/>
        <path d="M24.0144 25.1434C23.8325 25.1434 23.6581 25.0712 23.5295 24.9426C23.4009 24.8141 23.3287 24.6397 23.3287 24.4579V22.3826C23.3287 22.2008 23.4009 22.0264 23.5295 21.8979C23.6581 21.7693 23.8325 21.6971 24.0144 21.6971C24.1963 21.6971 24.3707 21.7693 24.4993 21.8979C24.6279 22.0264 24.7001 22.2008 24.7001 22.3826V24.4579C24.7001 24.6397 24.6279 24.8141 24.4993 24.9426C24.3707 25.0712 24.1963 25.1434 24.0144 25.1434Z" fill="currentColor"/>
        <path d="M18.9977 25.1434C18.8159 25.1434 18.6415 25.0712 18.5129 24.9426C18.3843 24.8141 18.312 24.6397 18.312 24.4579V22.3826C18.312 22.2008 18.3843 22.0264 18.5129 21.8979C18.6415 21.7693 18.8159 21.6971 18.9977 21.6971C19.1796 21.6971 19.354 21.7693 19.4826 21.8979C19.6112 22.0264 19.6835 22.2008 19.6835 22.3826V24.4579C19.6835 24.6397 19.6112 24.8141 19.4826 24.9426C19.354 25.0712 19.1796 25.1434 18.9977 25.1434Z" fill="currentColor"/>
        <path d="M13.9831 25.1434C13.8012 25.1434 13.6268 25.0712 13.4982 24.9426C13.3696 24.8141 13.2974 24.6397 13.2974 24.4579V22.3826C13.2974 22.2008 13.3696 22.0264 13.4982 21.8979C13.6268 21.7693 13.8012 21.6971 13.9831 21.6971C14.165 21.6971 14.3394 21.7693 14.468 21.8979C14.5966 22.0264 14.6688 22.2008 14.6688 22.3826V24.4579C14.6688 24.6397 14.5966 24.8141 14.468 24.9426C14.3394 25.0712 14.165 25.1434 13.9831 25.1434Z" fill="currentColor"/>
        <path d="M8.96435 25.1434C8.78249 25.1434 8.60808 25.0712 8.47948 24.9426C8.35088 24.8141 8.27864 24.6397 8.27864 24.4579V22.3826C8.27864 22.2008 8.35088 22.0264 8.47948 21.8979C8.60808 21.7693 8.78249 21.6971 8.96435 21.6971C9.14622 21.6971 9.32063 21.7693 9.44923 21.8979C9.57782 22.0264 9.65007 22.2008 9.65007 22.3826V24.4579C9.65007 24.6397 9.57782 24.8141 9.44923 24.9426C9.32063 25.0712 9.14622 25.1434 8.96435 25.1434Z" fill="currentColor"/>
        <path d="M3.94768 25.1434C3.76582 25.1434 3.59141 25.0712 3.46281 24.9426C3.33421 24.8141 3.26197 24.6397 3.26197 24.4579L3.26197 22.3826C3.26197 22.2008 3.33421 22.0264 3.46281 21.8979C3.59141 21.7693 3.76582 21.6971 3.94768 21.6971C4.12955 21.6971 4.30396 21.7693 4.43256 21.8979C4.56115 22.0264 4.6334 22.2008 4.6334 22.3826V24.4579C4.6334 24.6397 4.56115 24.8141 4.43256 24.9426C4.30396 25.0712 4.12955 25.1434 3.94768 25.1434Z" fill="currentColor"/>
    </symbol>  

    <symbol viewBox="0 0 48 49" fill="none" id="rocket">
       <path fill-rule="evenodd" clip-rule="evenodd" d="M41.8274 0.545472H44.7999C45.6483 0.546434 46.4617 0.883816 47.0616 1.4836C47.6615 2.08339 47.999 2.89659 47.9999 3.74482V6.71677C48.006 8.92343 47.5742 11.1094 46.7296 13.1481C45.8849 15.1868 44.6443 17.0377 43.0793 18.5938L41.8911 19.7819C42.1435 19.7553 42.3971 19.7418 42.6509 19.7415H43.9999C44.2121 19.7415 44.4156 19.8258 44.5656 19.9758C44.7157 20.1258 44.7999 20.3292 44.7999 20.5414V21.8901C44.8025 22.8358 44.6175 23.7727 44.2555 24.6464C43.8935 25.5201 43.3618 26.3134 42.6911 26.9803L35.2726 34.3973L36.3946 44.0442C36.4085 44.164 36.3952 44.2855 36.3555 44.3994C36.3159 44.5133 36.251 44.6168 36.1656 44.7022L34.1656 46.7017C34.0156 46.8517 33.8121 46.936 33.6 46.936C33.3878 46.936 33.1843 46.8517 33.0343 46.7017L28 41.6684L26.9656 42.7026C26.8156 42.8525 26.6121 42.9368 26.4 42.9368H24C23.7878 42.9368 23.5843 42.8525 23.4343 42.7026L21.1751 40.4438C21.0596 40.5052 20.9308 40.5372 20.8 40.5373H16.8C16.5878 40.5373 16.3843 40.453 16.2343 40.3031L15.1425 39.2114C14.8776 41.7694 13.6737 44.1385 11.7635 45.8607C9.8532 47.5829 7.3722 48.5359 4.79999 48.5356H0.799999C0.587827 48.5356 0.384345 48.4514 0.234317 48.3014C0.0842882 48.1514 2.25823e-06 47.9479 4.54968e-08 47.7358V43.7366C-0.000240457 41.165 0.953025 38.6845 2.67556 36.7746C4.39809 34.8648 6.76759 33.6611 9.32611 33.3963L8.23432 32.3047C8.08428 32.1547 7.99999 31.9512 7.99999 31.7391V27.7399C8 27.6091 8.0321 27.4804 8.09347 27.3649L5.83432 25.1062C5.68428 24.9562 5.59999 24.7527 5.59999 24.5406V22.1411C5.59999 21.9289 5.68428 21.7255 5.83432 21.5754L6.86859 20.5414L1.83432 15.5081C1.76003 15.4339 1.7011 15.3457 1.66089 15.2486C1.62068 15.1516 1.59999 15.0476 1.59999 14.9425C1.59999 14.8375 1.62068 14.7335 1.66089 14.6364C1.7011 14.5394 1.76003 14.4512 1.83432 14.3769L3.83432 12.3773C3.91965 12.292 4.02317 12.2271 4.13712 12.1875C4.25108 12.1479 4.37253 12.1345 4.49238 12.1485L14.1413 13.2702L21.5598 5.85317C22.2268 5.18265 23.0203 4.65106 23.8941 4.28916C24.768 3.92726 25.7051 3.74225 26.6509 3.74482H28C28.2121 3.74482 28.4156 3.82909 28.5656 3.97909C28.7157 4.12908 28.8 4.33252 28.8 4.54465V5.8934C28.7997 6.1472 28.7862 6.40081 28.7596 6.65321L29.948 5.46507C31.5044 3.90048 33.3557 2.66007 35.3948 1.81562C37.4339 0.971168 39.6203 0.539457 41.8274 0.545472ZM24.5067 5.76789C23.827 6.04938 23.2099 6.46285 22.6911 6.98439L16.1683 13.5059L21.3079 14.1034L21.8343 13.5771L21.8343 13.5771L25.5598 9.85236C26.0814 9.33367 26.495 8.7167 26.7765 8.03714C27.0581 7.35758 27.202 6.62894 27.2 5.8934V5.34449H26.6509C25.9152 5.34249 25.1864 5.4864 24.5067 5.76789ZM19.865 15.546L4.69204 13.7821L3.5314 14.9425L12 23.4094L19.865 15.546ZM7.99998 21.6725L7.19999 22.4723V24.2093L9.19999 26.2088L10.8686 24.5406L7.99998 21.6725ZM8.33134 38.9376L9.59999 40.206L19.6686 30.1394L18.4 28.871L8.33134 38.9376ZM9.59999 31.4078L11.6 33.4073L13.2686 31.7391L9.59999 28.0712V31.4078ZM4.79999 46.936C6.70342 46.932 8.55491 46.3149 10.08 45.1763C11.1247 44.3888 11.9816 43.3794 12.589 42.2209C13.1964 41.0624 13.5391 39.7835 13.5925 38.4766L10.1657 41.9027C10.0156 42.0527 9.81215 42.137 9.59999 42.137C9.38783 42.137 9.18435 42.0527 9.03432 41.9027L6.63432 39.5032C6.56002 39.4289 6.50109 39.3408 6.46088 39.2437C6.42067 39.1467 6.39998 39.0427 6.39998 38.9376C6.39998 38.8326 6.42067 38.7286 6.46088 38.6315C6.50109 38.5345 6.56002 38.4463 6.63432 38.372L10.0611 34.9459C7.78763 35.0331 5.63631 35.9975 4.05871 37.6365C2.4811 39.2756 1.59988 41.4619 1.6 43.7366V46.936H4.79999ZM16.8 35.2698L15.1314 36.938L17.1314 38.9376H20.4686L16.8 35.2698ZM24.3313 41.3371H26.0686L26.8686 40.5373L24 37.6693L22.3314 39.3375L24.3313 41.3371ZM25.1314 36.5381L33.6 45.005L34.7606 43.8446L32.9963 28.6748L25.1314 36.5381ZM43.1999 21.3412H42.6509C41.9154 21.3392 41.1868 21.4831 40.5073 21.7644C39.8277 22.0458 39.2107 22.459 38.6919 22.9803L34.4393 27.2321L35.0369 32.3706L41.5598 25.8491C42.0814 25.3304 42.495 24.7134 42.7765 24.0339C43.058 23.3543 43.202 22.6257 43.1999 21.8901V21.3412ZM37.5606 21.8491L41.948 17.4626C42.5242 16.8864 43.0537 16.2654 43.5316 15.6055L32.9369 5.01289C32.2768 5.49072 31.6557 6.02018 31.0794 6.59628L10.7314 26.9401L14.4 30.6079L17.8343 27.1743C17.9844 27.0243 18.1878 26.9401 18.4 26.9401C18.6121 26.9401 18.8156 27.0243 18.9657 27.1743L21.3657 29.5738C21.4399 29.6481 21.4989 29.7363 21.5391 29.8333C21.5793 29.9304 21.6 30.0344 21.6 30.1394C21.6 30.2445 21.5793 30.3485 21.5391 30.4455C21.4989 30.5426 21.4399 30.6307 21.3657 30.705L17.9314 34.1386L21.6 37.8064L33.8343 25.5746L37.5598 21.8499L37.5606 21.8491ZM44.4193 14.2306C45.7234 11.9414 46.4062 9.35118 46.3999 6.71677V3.74482C46.3995 3.32071 46.2307 2.91411 45.9308 2.61421C45.6308 2.31432 45.2241 2.14563 44.7999 2.14514H41.8274C39.1924 2.13893 36.6017 2.82161 34.3121 4.12545L44.4193 14.2306ZM33.6 12.543C33.8121 12.543 34.0156 12.6272 34.1656 12.7772L35.7656 14.3768C35.9157 14.5269 36 14.7303 36 14.9424V19.7414C36 19.9536 35.9157 20.157 35.7656 20.307L34.9656 21.1068C34.8156 21.2568 34.6121 21.3411 34.4 21.3411C34.1878 21.3411 33.9843 21.2568 33.8343 21.1068L27.4343 14.7082C27.36 14.6339 27.3011 14.5458 27.2609 14.4487C27.2206 14.3517 27.2 14.2477 27.2 14.1426C27.2 14.0376 27.2206 13.9336 27.2609 13.8365C27.3011 13.7395 27.36 13.6513 27.4343 13.577L28.2343 12.7772C28.3843 12.6272 28.5878 12.543 28.8 12.543H33.6ZM29.1313 14.1426L34.4 19.4101V15.2737L33.2686 14.1426H29.1313Z" fill="currentColor"/>
    </symbol>

    <symbol viewBox="0 0 44 49" fill="none" id="oil">
        <path fill-rule="evenodd" clip-rule="evenodd" d="M39.5358 21.5071C41.1582 20.6582 42.4118 18.6997 42.8806 16.1635C42.8981 16.1077 42.9085 16.0495 42.9113 15.9901C43.2779 13.8211 43.0753 11.2466 42.0511 8.58924C41.986 8.42032 41.9187 8.25387 41.8492 8.08991C41.831 7.97486 41.7836 7.86619 41.7115 7.77433C39.2042 2.19172 34.207 -0.371708 31.0599 0.84052C30.9117 0.897697 30.7879 1.00457 30.7097 1.14288C30.6315 1.28118 30.6038 1.44234 30.6313 1.5988L32.0949 9.95255L6.78719 14.3198C6.65053 14.0549 6.45924 13.8189 6.22298 13.6286C5.79789 13.2864 5.25884 13.1179 4.71446 13.1572C4.17008 13.1965 3.66083 13.4406 3.28933 13.8404C2.98538 14.1675 2.79213 14.5789 2.73232 15.0165L0.906173 15.3328C0.816447 15.3482 0.730675 15.3813 0.653861 15.4301C0.577046 15.4789 0.510726 15.5426 0.458768 15.6173C0.406809 15.692 0.370253 15.7763 0.35123 15.8653C0.332207 15.9543 0.331099 16.0462 0.34797 16.1357L1.10916 20.1321C1.13902 20.2889 1.2227 20.4304 1.34576 20.5322C1.46883 20.6339 1.62355 20.6896 1.78325 20.6895C1.83259 20.6893 1.88177 20.684 1.93 20.6737L2.89033 20.4629C3.00225 20.7196 3.16434 20.9544 3.36997 21.1522C3.603 21.3764 3.88128 21.5429 4.18268 21.6429V38.3948H0.687432C0.593192 38.3945 0.499916 38.4137 0.413426 38.4512C0.326936 38.4886 0.249088 38.5434 0.18474 38.6122C0.120393 38.6811 0.0709274 38.7624 0.0394315 38.8512C0.00793557 38.94 -0.00491471 39.0344 0.00168236 39.1284L0.618857 47.8787C0.631026 48.0521 0.708612 48.2144 0.83592 48.3328C0.963228 48.4512 1.13075 48.5168 1.30461 48.5164H8.43228C8.60554 48.5159 8.77221 48.4499 8.89879 48.3316C9.02537 48.2133 9.10248 48.0515 9.1146 47.8787L9.73178 39.1284C9.73837 39.0344 9.72552 38.94 9.69403 38.8512C9.66253 38.7624 9.61307 38.6811 9.54872 38.6122C9.48437 38.5434 9.40652 38.4886 9.32003 38.4512C9.23354 38.4137 9.14027 38.3945 9.04603 38.3948H5.5542V21.643C5.87059 21.5385 6.16156 21.3612 6.40197 21.1216C6.80747 20.7175 7.03602 20.169 7.03748 19.5966V19.5509L16.4349 17.491V18.5635H14.9592C14.6083 18.5638 14.2719 18.7034 14.0238 18.9514C13.7757 19.1995 13.6361 19.5358 13.6357 19.8867V21.6541C13.6361 22.0049 13.7757 22.3413 14.0238 22.5893C14.2233 22.7888 14.4799 22.9181 14.7553 22.9613L11.5771 47.7437C11.5629 47.8343 11.567 47.9268 11.5892 48.0157C11.6113 48.1047 11.6511 48.1883 11.7061 48.2616C11.7612 48.3349 11.8304 48.3965 11.9096 48.4426C11.9888 48.4887 12.0765 48.5184 12.1675 48.5301C12.2584 48.5417 12.3508 48.535 12.4391 48.5104C12.5274 48.4857 12.6098 48.4436 12.6816 48.3865C12.7533 48.3294 12.8129 48.2586 12.8568 48.1781C12.9006 48.0976 12.9279 48.0091 12.937 47.9179L13.1493 46.2622C13.2169 46.2509 13.2827 46.2294 13.3443 46.1984L20.2923 42.7016L27.2403 46.1984C27.302 46.2293 27.3677 46.2507 27.4353 46.2621L27.6476 47.9179C27.6688 48.0831 27.7494 48.2349 27.8743 48.345C27.9992 48.4552 28.16 48.5161 28.3265 48.5164C28.3561 48.5166 28.3857 48.5148 28.415 48.5109C28.5043 48.4995 28.5905 48.4706 28.6687 48.4259C28.7469 48.3811 28.8155 48.3214 28.8705 48.2502C28.9256 48.1789 28.9661 48.0975 28.9897 48.0106C29.0134 47.9238 29.0196 47.8331 29.0082 47.7437L25.8294 22.9613C26.1047 22.9181 26.3613 22.7888 26.5608 22.5893C26.8089 22.3413 26.9485 22.0049 26.9489 21.6541V19.8867C26.9485 19.5358 26.8089 19.1995 26.5608 18.9514C26.3127 18.7034 25.9763 18.5638 25.6254 18.5635H24.1503V15.7999L33.4416 13.7633L34.642 15.6698C34.6512 15.6858 34.661 15.7014 34.6714 15.7165L38.1643 21.2643V41.8124C38.1643 41.9943 38.2366 42.1687 38.3652 42.2972C38.4938 42.4258 38.6682 42.498 38.8501 42.498C39.0319 42.498 39.2064 42.4258 39.335 42.2972C39.4636 42.1687 39.5358 41.9943 39.5358 41.8124V21.5071ZM4.93872 20.3845C4.91547 20.3821 4.89202 20.3809 4.86844 20.3809C4.84659 20.3809 4.82485 20.3819 4.80328 20.384C4.63348 20.3688 4.47214 20.299 4.34414 20.1839C4.19192 20.0469 4.09867 19.8563 4.08396 19.6521V15.3116C4.08258 15.2074 4.10208 15.104 4.14133 15.0074C4.18057 14.9109 4.23876 14.8232 4.31246 14.7495C4.38616 14.6758 4.47387 14.6177 4.57042 14.5784C4.66698 14.5392 4.77041 14.5197 4.87463 14.5211C5.06758 14.5207 5.2538 14.592 5.39721 14.7211C5.54062 14.8501 5.63102 15.0278 5.65089 15.2197C5.65641 15.2514 5.65917 15.2835 5.65912 15.3157L5.66598 19.5993C5.66492 19.8041 5.58459 20.0004 5.44185 20.1472C5.30805 20.2848 5.12916 20.3689 4.93872 20.3845ZM16.7698 16.0143L7.03589 18.148L7.03128 15.6686L32.3316 11.3033L32.4774 12.1352C32.4925 12.2229 32.5246 12.3067 32.572 12.382L32.6652 12.5301L23.4873 14.5418C23.4312 14.5401 23.375 14.5452 23.3199 14.5574L16.9753 15.9334C16.9024 15.9492 16.8331 15.9767 16.7698 16.0143ZM2.71247 16.4127V19.0992L2.325 19.1852L1.82577 16.5669L2.71247 16.4127ZM13.3551 44.6578L18.7672 41.934L14.0115 39.5406L13.3551 44.6578ZM21.8173 41.934L27.2295 44.6578L26.5731 39.5405L21.8173 41.934ZM26.3291 37.6383L25.6273 32.1664L21.5882 34.6838L26.3291 37.6383ZM20.2924 35.4915L25.3298 38.6313L20.2923 41.1665L15.2548 38.6313L20.2924 35.4915ZM20.292 33.876L24.5734 31.2075L20.2915 28.358L16.0098 31.2074L20.292 33.876ZM21.5296 27.5341L25.3601 30.0834L24.7576 25.3859L21.5296 27.5341ZM24.5629 23.8682L20.2922 26.7105L16.0217 23.8684L16.136 22.9774H24.4486L24.5629 23.8682ZM19.0541 27.5345L15.2246 30.0832L15.8269 25.3869L19.0541 27.5345ZM14.9574 32.1663L18.9961 34.6836L14.2555 37.6382L14.9574 32.1663ZM17.8064 17.1904V18.5619H22.7788V16.1005L17.8064 17.1904ZM17.0178 19.9254L14.9592 19.9347L15.0072 21.6541L15.2838 21.6529C15.3625 21.6223 15.4468 21.6062 15.5325 21.6062H25.0521C25.0699 21.6062 25.0876 21.6069 25.1053 21.6083L25.5774 21.6061V19.8867L23.6895 19.8952C23.6178 19.9201 23.5419 19.9331 23.4646 19.9331H17.1207C17.086 19.9331 17.0517 19.9305 17.0178 19.9254ZM39.1031 20.1856L36.5541 16.1357L41.3626 16.5701C40.9665 18.211 40.1917 19.5295 39.1031 20.1856ZM40.8465 9.28704L35.3798 14.2699L33.805 11.7677L33.5672 10.4106L33.5647 10.3948L33.5611 10.3755L33.294 8.85138L40.6901 8.88114C40.7176 8.94902 40.7445 9.01718 40.7708 9.08562C40.7966 9.1526 40.8219 9.21974 40.8465 9.28704ZM36.8497 14.7845L41.2858 10.7412C41.6535 12.2657 41.7463 13.811 41.5955 15.213L36.8497 14.7845ZM40.0395 7.5073L34.0402 7.48308L37.2704 3.98603C38.3221 4.92419 39.2895 6.13142 40.0395 7.5073ZM36.1885 3.1364C34.7938 2.1843 33.3348 1.72498 32.0879 1.96697L32.9139 6.68167L36.1885 3.1364ZM1.94372 47.1451H7.79248L8.31022 39.766H1.42941L1.94372 47.1451Z" fill="currentColor"/>
    </symbol>

    <symbol viewBox="0 0 42 42" fill="none" id="engineering">
        <path d="M39.1374 31.4374C40.9512 28.2974 41.9185 24.7233 41.9185 21.0001C41.9185 17.2768 40.9512 13.7026 39.1374 10.5626C40.4234 8.41004 41.288 6.53811 41.7076 4.99506C42.2277 3.08261 42.0532 1.67491 41.1891 0.810853C40.3251 -0.0532887 38.9174 -0.227774 37.0049 0.292401C35.4619 0.712003 33.59 1.57664 31.4374 2.8626C28.2974 1.04883 24.7233 0.0814926 20.9999 0.0814926C17.2766 0.0814926 13.7025 1.04891 10.5626 2.8626C8.41 1.57664 6.53807 0.712003 4.99502 0.292401C3.08257 -0.227692 1.67479 -0.0532066 0.810817 0.810853C-0.0533247 1.67491 -0.227728 3.08269 0.292365 4.99514C0.711967 6.53819 1.5766 8.41012 2.86256 10.5627C1.0488 13.7027 0.0814565 17.2768 0.0814565 21.0001C0.0814565 24.7233 1.04888 28.2975 2.86256 31.4374C1.5766 33.59 0.711967 35.4619 0.292365 37.005C-0.227728 38.9174 -0.0532426 40.3251 0.810817 41.1892C1.35093 41.7294 2.1035 42 3.05903 42C3.63203 42 4.27813 41.9026 4.9951 41.7077C6.53816 41.2881 8.41008 40.4235 10.5626 39.1375C13.7026 40.9513 17.2768 41.9186 21 41.9186C24.7235 41.9186 28.2979 40.9511 31.438 39.1372C33.59 40.4227 35.4622 41.2882 37.0049 41.7077C37.722 41.9027 38.3679 42 38.941 42C39.8964 42 40.6491 41.7293 41.1892 41.1892C42.0534 40.3251 42.2278 38.9173 41.7077 37.005C41.288 35.4619 40.4234 33.59 39.1374 31.4374ZM38.94 1.64456C39.4669 1.64456 39.8262 1.7681 40.0289 1.97097C40.6731 2.6151 40.5159 4.83476 38.145 9.00658C37.4499 8.01734 36.6642 7.08101 35.7916 6.20834C34.9188 5.33558 33.9824 4.54986 32.993 3.85463C35.8516 2.22995 37.7937 1.64456 38.94 1.64456ZM1.97094 1.97097C2.17381 1.76802 2.53278 1.64456 3.05985 1.64456C4.20619 1.64456 6.1485 2.23028 9.00671 3.85479C8.01739 4.54994 7.08097 5.33574 6.20822 6.20842C5.33563 7.08101 4.54991 8.01742 3.85476 9.00667C1.48398 4.83476 1.32681 2.6151 1.97094 1.97097ZM3.05993 40.3555C2.53303 40.3555 2.17381 40.2319 1.97102 40.0291C1.32689 39.385 1.48472 37.165 3.85517 32.9938C4.55024 33.9829 5.33587 34.9192 6.20838 35.7917C7.08114 36.6645 8.01755 37.4502 9.00696 38.1454C6.14833 39.7701 4.20627 40.3556 3.05993 40.3555ZM20.9999 40.278C10.37 40.278 1.72205 31.63 1.72205 21.0001C1.72205 10.3701 10.37 1.72216 20.9999 1.72216C31.6299 1.72216 40.2778 10.3701 40.2778 21.0001C40.2778 31.63 31.6299 40.278 20.9999 40.278ZM40.029 40.0291C39.385 40.6732 37.1649 40.515 32.9938 38.1448C33.9829 37.4498 34.9191 36.6642 35.7916 35.7917C36.6642 34.9191 37.4498 33.9829 38.1449 32.9937C40.5155 37.1651 40.6732 39.385 40.029 40.0291Z" fill="currentColor"/>
        <path d="M20.9961 21.2052C20.9971 21.2058 20.9981 21.2064 20.9991 21.207C21.0018 21.2084 21.0046 21.2098 21.0073 21.2113C21.0139 21.2006 21.0202 21.19 21.0269 21.1792C21.0272 21.1787 21.0274 21.1781 21.0278 21.1775C21.0174 21.1773 21.0072 21.177 20.9968 21.1768C20.9965 21.1862 20.9963 21.1956 20.9961 21.2052Z" fill="currentColor"/>
        <path d="M38.2238 21.309L38.2244 21.2731C38.2801 18.2783 37.5254 15.271 36.0724 12.6527C33.046 7.19953 27.2962 3.79735 21.0668 3.77372L21.0488 3.77348C21.0327 3.77315 21.0167 3.7729 21.0005 3.7729C17.9765 3.7729 15.0012 4.56814 12.3964 6.07272C9.82235 7.55949 7.66331 9.69868 6.15274 12.2593C4.59615 14.8978 3.77344 17.9203 3.77344 21C3.77344 21.0229 3.77377 21.0458 3.77418 21.0686L3.77467 21.103C3.79247 24.1314 4.60797 27.1061 6.13305 29.7053C7.60982 32.2222 9.7171 34.3391 12.2272 35.8273C14.812 37.3598 17.774 38.1887 20.7933 38.2245L20.8597 38.2255C20.9066 38.2262 20.9535 38.227 21.0005 38.227C23.9589 38.227 26.8784 37.4632 29.4434 36.0183C32.0169 34.5686 34.1893 32.468 35.7256 29.9436C37.3062 27.3467 38.17 24.361 38.2238 21.309ZM35.2488 14.6763C36.0993 16.5942 36.5573 18.6808 36.5855 20.7923C32.9232 22.6242 29.3497 23.1004 25.7685 22.2232C25.8432 21.9325 25.8907 21.6311 25.9108 21.3224C29.6758 20.2845 32.8014 18.0623 35.2465 14.678C35.2473 14.6772 35.2482 14.6772 35.2488 14.6763ZM34.3949 13.0269C32.1389 16.4462 29.2815 18.646 25.7405 19.6771C25.4084 18.4891 24.6414 17.4815 23.622 16.8372C24.5472 13.0728 24.1471 9.27145 22.4171 5.47879C27.3612 5.93072 31.8317 8.72937 34.3949 13.0269ZM24.2818 21C24.2818 22.8094 22.8098 24.2814 21.0005 24.2814C19.1912 24.2814 17.7192 22.8094 17.7192 21C17.7192 19.1907 19.1912 17.7187 21.0005 17.7187C22.8098 17.7187 24.2818 19.1907 24.2818 21ZM20.5675 5.41965C22.3846 9.01813 22.8873 12.6265 22.0783 16.1984C21.7594 16.1268 21.429 16.0864 21.0902 16.0803C20.0221 12.3688 17.7905 9.28663 14.417 6.87336C14.4158 6.87246 14.4155 6.87131 14.4143 6.87041C16.336 5.97477 18.4333 5.47879 20.5675 5.41965ZM12.7927 7.74768C16.2065 9.98473 18.4131 12.8173 19.4637 16.325C18.3661 16.6868 17.4385 17.4244 16.8334 18.3854C15.3942 17.9464 13.9655 17.7253 12.5496 17.7253C10.1509 17.7253 7.78874 18.355 5.47645 19.6141C5.91304 14.7611 8.62277 10.3368 12.7927 7.74768ZM6.86159 27.5645C5.98769 25.6816 5.4968 23.6311 5.42445 21.5424C8.94639 19.3558 12.5058 18.8103 16.2035 19.9019C16.1355 20.199 16.0944 20.506 16.083 20.8206C12.1357 21.7364 9.04902 23.9905 6.86569 27.5604C6.86446 27.5621 6.86282 27.5625 6.86159 27.5645ZM7.78094 29.2596C9.73769 25.6037 12.5475 23.3515 16.296 22.4477C16.6343 23.5449 17.3469 24.479 18.2837 25.1016C17.0322 28.9923 17.3772 32.8071 19.3246 36.4971C14.5644 35.9949 10.3479 33.3681 7.78094 29.2596ZM21.259 36.5843C19.12 33.0517 18.6287 29.4815 19.7842 25.7697C20.0478 25.837 20.32 25.8817 20.5985 25.9043C21.4769 29.9077 23.7126 33.0385 27.2828 35.2536C27.2866 35.2564 27.2892 35.2593 27.2935 35.262C25.3995 36.0971 23.3428 36.5497 21.259 36.5843ZM29.0202 34.3665C25.361 32.3901 23.1199 29.5517 22.2404 25.7637C23.4203 25.4564 24.4292 24.7212 25.0909 23.7344C28.8706 24.7181 32.6885 24.3577 36.4981 22.6494C35.9812 27.4732 33.2095 31.846 29.0202 34.3665Z" fill="currentColor"/>
    </symbol>

    <symbol viewBox="0 0 48 49" fill="none" id="gears">
        <path d="M42.4632 30.967C42.4452 30.967 42.428 30.9598 42.4152 30.9471C42.4025 30.9344 42.3953 30.9171 42.3953 30.8991V30.6937C42.3953 30.6757 42.4025 30.6584 42.4152 30.6457C42.428 30.6329 42.4452 30.6258 42.4632 30.6258C42.4812 30.6258 42.4985 30.6329 42.5112 30.6457C42.524 30.6584 42.5311 30.6757 42.5311 30.6937V30.8991C42.5311 30.9171 42.524 30.9344 42.5112 30.9471C42.4985 30.9598 42.4812 30.967 42.4632 30.967Z" fill="currentColor"/>
        <path d="M17.3897 31.8014H13.8727C13.7146 31.8015 13.5614 31.7469 13.4389 31.6469C13.3164 31.547 13.2323 31.4078 13.2007 31.253L12.624 28.3633C11.3946 28.0648 10.219 27.5772 9.13919 26.9181L6.68845 28.5552C6.55648 28.6434 6.39801 28.683 6.24008 28.6674C6.08215 28.6517 5.93453 28.5818 5.8224 28.4695L3.33531 25.9802C3.22301 25.8681 3.15308 25.7205 3.13745 25.5626C3.12182 25.4047 3.16146 25.2463 3.2496 25.1143L4.88708 22.6641C4.22779 21.5845 3.74015 20.4092 3.4416 19.18L0.548571 18.6034C0.393687 18.5718 0.254483 18.4877 0.154518 18.3653C0.0545531 18.2428 -3.22492e-05 18.0896 1.42942e-08 17.9316V14.4153C-3.22492e-05 14.2572 0.0545531 14.104 0.154518 13.9816C0.254483 13.8592 0.393687 13.775 0.548571 13.7434L3.43885 13.1668C3.73753 11.9377 4.22516 10.7624 4.88434 9.68275L3.2496 7.2325C3.16146 7.10055 3.12182 6.94212 3.13745 6.78423C3.15308 6.62633 3.22301 6.47874 3.33531 6.36662L5.82308 3.87936C5.93522 3.76708 6.08284 3.69717 6.24077 3.68154C6.3987 3.66591 6.55716 3.70554 6.68914 3.79366L9.13988 5.43081C10.2195 4.77208 11.3949 4.28478 12.624 3.98631L13.2007 1.09387C13.2323 0.939017 13.3164 0.799841 13.4389 0.699897C13.5614 0.599952 13.7146 0.545378 13.8727 0.54541H17.3897C17.5478 0.545378 17.701 0.599952 17.8235 0.699897C17.9459 0.799841 18.0301 0.939017 18.0617 1.09387L18.6384 3.98357C19.8678 4.28206 21.0434 4.7696 22.1232 5.42876L24.5739 3.79161C24.7059 3.70348 24.8644 3.66386 25.0223 3.67948C25.1802 3.69511 25.3278 3.76502 25.44 3.8773L27.9277 6.36457C28.0401 6.47668 28.11 6.62427 28.1256 6.78217C28.1412 6.94007 28.1016 7.0985 28.0135 7.23045L26.376 9.68069C27.0353 10.7603 27.5229 11.9356 27.8215 13.1648L30.7117 13.7413C30.8666 13.773 31.0058 13.8571 31.1058 13.9795C31.2058 14.102 31.2604 14.2552 31.2603 14.4132V17.9316C31.2604 18.0896 31.2058 18.2428 31.1058 18.3653C31.0058 18.4877 30.8666 18.5718 30.7117 18.6034L27.8215 19.18C27.5229 20.4092 27.0352 21.5845 26.376 22.6641L28.0135 25.1143C28.1016 25.2463 28.1412 25.4047 28.1256 25.5626C28.11 25.7205 28.0401 25.8681 27.9277 25.9802L25.44 28.4675C25.3278 28.5798 25.1802 28.6497 25.0223 28.6653C24.8644 28.6809 24.7059 28.6413 24.5739 28.5532L22.1232 26.916C21.0434 27.5751 19.8678 28.0627 18.6384 28.3612L18.0617 31.2509C18.0305 31.4061 17.9465 31.5458 17.824 31.6462C17.7015 31.7465 17.5481 31.8014 17.3897 31.8014ZM14.4356 30.4303H16.8274L17.3815 27.6551C17.4079 27.5228 17.4727 27.4013 17.5678 27.3057C17.663 27.2101 17.7842 27.1447 17.9163 27.1176C19.2868 26.8387 20.5906 26.2982 21.7563 25.5257C21.8688 25.451 22.0008 25.4111 22.1359 25.4111C22.2709 25.4111 22.4029 25.451 22.5154 25.5257L24.8695 27.0984L26.5618 25.4064L24.9888 23.0528C24.914 22.9404 24.8742 22.8084 24.8742 22.6734C24.8742 22.5383 24.914 22.4063 24.9888 22.2939C25.7615 21.1284 26.3021 19.8249 26.581 18.4547C26.6081 18.3226 26.6735 18.2014 26.7691 18.1062C26.8648 18.0111 26.9863 17.9463 27.1186 17.9199L29.8944 17.366V14.9781L27.1186 14.4242C26.9863 14.3978 26.8648 14.333 26.7691 14.2379C26.6735 14.1428 26.6081 14.0216 26.581 13.8894C26.3019 12.5193 25.7613 11.2158 24.9888 10.0502C24.914 9.93777 24.8742 9.80576 24.8742 9.67075C24.8742 9.53574 24.914 9.40373 24.9888 9.29128L26.5618 6.93771L24.8674 5.24708L22.5134 6.81979C22.4008 6.89466 22.2686 6.93461 22.1335 6.93461C21.9983 6.93461 21.8661 6.89466 21.7536 6.81979C20.588 6.04688 19.2841 5.50613 17.9136 5.2272C17.7814 5.20014 17.6602 5.13471 17.5651 5.0391C17.4699 4.9435 17.4051 4.82196 17.3787 4.68971L16.8274 1.91656H14.4356L13.8816 4.69176C13.8552 4.82402 13.7904 4.94555 13.6952 5.04116C13.6001 5.13676 13.4789 5.20219 13.3467 5.22925C11.9762 5.50834 10.6724 6.04908 9.50673 6.82184C9.39427 6.89657 9.26223 6.93644 9.12719 6.93644C8.99215 6.93644 8.86012 6.89657 8.74765 6.82184L6.39497 5.24708L4.70262 6.93908L6.27565 9.29265C6.3504 9.4051 6.39027 9.53711 6.39027 9.67212C6.39027 9.80713 6.3504 9.93914 6.27565 10.0516C5.50273 11.217 4.96188 12.5206 4.68274 13.8908C4.65567 14.0229 4.59023 14.1441 4.49461 14.2392C4.39898 14.3344 4.27742 14.3992 4.14514 14.4256L1.37143 14.9781V17.3694L4.1472 17.9234C4.27948 17.9497 4.40104 18.0145 4.49666 18.1097C4.59229 18.2048 4.65773 18.326 4.6848 18.4581C4.96379 19.8284 5.50465 21.132 6.27771 22.2973C6.3526 22.4098 6.39255 22.542 6.39255 22.6771C6.39255 22.8123 6.3526 22.9444 6.27771 23.0569L4.70262 25.4078L6.39428 27.0998L8.74834 25.5271C8.8608 25.4523 8.99284 25.4125 9.12788 25.4125C9.26292 25.4125 9.39495 25.4523 9.50742 25.5271C10.6732 26.2995 11.977 26.84 13.3474 27.119C13.4796 27.146 13.6008 27.2115 13.6959 27.3071C13.7911 27.4027 13.8559 27.5242 13.8823 27.6565L14.4356 30.4303Z" fill="currentColor"/>
        <path d="M15.6343 23.8906C14.1073 23.8913 12.6144 23.4391 11.3445 22.5914C10.0746 21.7436 9.08467 20.5384 8.5 19.128C7.91534 17.7177 7.76219 16.1657 8.05992 14.6683C8.35765 13.1709 9.09289 11.7955 10.1726 10.716C11.2524 9.63646 12.6281 8.90137 14.1258 8.60369C15.6234 8.30602 17.1758 8.45914 18.5864 9.04369C19.997 9.62823 21.2025 10.6179 22.0505 11.8876C22.8984 13.1573 23.3506 14.6498 23.3499 16.1765C23.3467 18.2214 22.5327 20.1816 21.0865 21.6276C19.6402 23.0735 17.6796 23.8873 15.6343 23.8906ZM15.6343 9.82672C14.3788 9.82604 13.1514 10.1976 12.1071 10.8944C11.0629 11.5912 10.2488 12.5819 9.76769 13.7413C9.28663 14.9007 9.16023 16.1766 9.40449 17.4078C9.64876 18.639 10.2527 19.7702 11.14 20.6582C12.0272 21.5462 13.1579 22.1513 14.3891 22.3968C15.6203 22.6424 16.8967 22.5174 18.0568 22.0377C19.217 21.558 20.2088 20.7451 20.9068 19.7018C21.6049 18.6585 21.9778 17.4317 21.9785 16.1765C21.9772 14.4941 21.3086 12.8808 20.1193 11.6906C18.93 10.5004 17.317 9.83031 15.6343 9.8274V9.82672Z" fill="currentColor"/>
        <path d="M38.2731 48.5356C38.1565 48.5357 38.0417 48.506 37.9397 48.4494C37.8377 48.3928 37.7519 48.3111 37.6903 48.212L36.4985 46.2924C35.5425 46.4014 34.5757 46.37 33.6288 46.1992L32.3122 48.0352C32.2201 48.1637 32.0863 48.2565 31.9336 48.2977C31.7809 48.3389 31.6186 48.3261 31.4743 48.2614L28.9234 47.1048C28.7789 47.0394 28.6616 46.9258 28.5915 46.7835C28.5213 46.6413 28.5027 46.4791 28.5387 46.3246L29.0516 44.1253C28.2993 43.5258 27.6386 42.8195 27.0905 42.0288L24.8619 42.3963C24.7052 42.4223 24.5443 42.3931 24.4068 42.3137C24.2692 42.2343 24.1635 42.1096 24.1076 41.961L23.1216 39.3386C23.066 39.1903 23.0635 39.0273 23.1145 38.8773C23.1655 38.7273 23.2668 38.5997 23.4014 38.5159L25.3214 37.3244C25.2126 36.3686 25.244 35.402 25.4146 34.4553L23.5796 33.1383C23.4507 33.0459 23.3577 32.9116 23.3167 32.7583C23.2757 32.605 23.2891 32.4423 23.3547 32.2978L24.5115 29.7475C24.577 29.603 24.6906 29.4857 24.8329 29.4156C24.9752 29.3454 25.1374 29.3268 25.2919 29.3628L27.4916 29.8757C28.0912 29.1233 28.7977 28.4628 29.5885 27.9149L29.221 25.6868C29.195 25.5301 29.2242 25.3693 29.3036 25.2317C29.383 25.0942 29.5077 24.9885 29.6564 24.9327L32.28 23.9468C32.4283 23.8912 32.5914 23.8887 32.7414 23.9397C32.8914 23.9907 33.0191 24.092 33.1028 24.2265L34.2946 26.1461C35.2506 26.0373 36.2174 26.0687 37.1643 26.2394L38.4781 24.4034C38.5706 24.2745 38.7049 24.1816 38.8582 24.1405C39.0115 24.0995 39.1743 24.113 39.3188 24.1785L41.8697 25.3351C42.014 25.4006 42.1312 25.514 42.2014 25.6561C42.2715 25.7982 42.2902 25.9602 42.2544 26.1146L41.7421 28.3112C42.4946 28.9106 43.1553 29.617 43.7033 30.4077L45.9319 30.0402C46.0886 30.0142 46.2494 30.0434 46.387 30.1228C46.5246 30.2022 46.6303 30.3269 46.6861 30.4755L47.6722 33.0979C47.7278 33.2462 47.7303 33.4092 47.6793 33.5592C47.6283 33.7092 47.5269 33.8368 47.3924 33.9205L45.4724 35.1121C45.5815 36.0679 45.5501 37.0345 45.3792 37.9812L47.2141 39.2982C47.3431 39.3906 47.436 39.5249 47.477 39.6782C47.5181 39.8315 47.5046 39.9942 47.439 40.1387L46.2857 42.6918C46.2202 42.8362 46.1066 42.9535 45.9643 43.0237C45.822 43.0938 45.6598 43.1124 45.5053 43.0764L43.3056 42.5636C42.7059 43.3158 41.9994 43.9764 41.2087 44.5243L41.5762 46.7524C41.6022 46.9091 41.573 47.07 41.4936 47.2075C41.4142 47.345 41.2895 47.4508 41.1408 47.5066L38.5179 48.4924C38.4396 48.5216 38.3567 48.5363 38.2731 48.5356ZM36.8461 44.8685C36.9628 44.8684 37.0776 44.8981 37.1796 44.9547C37.2815 45.0113 37.3674 45.093 37.429 45.1921L38.5584 47.0095L40.128 46.4199L39.7796 44.3084C39.7576 44.1751 39.7755 44.0382 39.831 43.915C39.8865 43.7918 39.9772 43.6878 40.0916 43.6159C41.0204 43.0344 41.8283 42.2793 42.4711 41.3919C42.5502 41.2828 42.6599 41.1994 42.7862 41.1522C42.9126 41.105 43.0501 41.0961 43.1814 41.1266L45.2653 41.612L45.9572 40.0859L44.2189 38.8382C44.1094 38.7595 44.0254 38.6503 43.9776 38.5243C43.9298 38.3982 43.9202 38.2608 43.9501 38.1293C44.1942 37.0614 44.2301 35.9564 44.0557 34.8749C44.0343 34.7415 44.0527 34.6047 44.1087 34.4818C44.1647 34.3588 44.2558 34.2552 44.3705 34.1838L46.1883 33.0547L45.5986 31.4854L43.4866 31.8337C43.3533 31.8551 43.2166 31.837 43.0935 31.7816C42.9704 31.7261 42.8663 31.6358 42.794 31.5217C42.2124 30.5933 41.4571 29.7858 40.5696 29.1435C40.4604 29.0643 40.3769 28.9547 40.3297 28.8284C40.2825 28.702 40.2737 28.5646 40.3042 28.4332L40.7897 26.3491L39.2633 25.6573L38.0153 27.3953C37.9366 27.5048 37.8274 27.5887 37.7013 27.6365C37.5752 27.6843 37.4378 27.6939 37.3063 27.664C36.2387 27.4195 35.1339 27.3832 34.0525 27.557C33.9191 27.5793 33.7821 27.5612 33.6589 27.5051C33.5358 27.4491 33.4322 27.3576 33.3613 27.2424L32.2285 25.4263L30.6583 26.0166L31.0066 28.1281C31.0286 28.2614 31.0108 28.3983 30.9553 28.5215C30.8998 28.6447 30.8091 28.7487 30.6946 28.8206C29.7676 29.4023 28.9613 30.1572 28.32 31.0439C28.2407 31.1532 28.131 31.2367 28.0045 31.2839C27.878 31.3311 27.7404 31.3399 27.6089 31.3092L25.5243 30.8238L24.8324 32.3499L26.5707 33.5976C26.6803 33.6763 26.7642 33.7855 26.812 33.9116C26.8599 34.0376 26.8694 34.175 26.8395 34.3065C26.5957 35.3745 26.5599 36.4794 26.7339 37.5609C26.7553 37.6944 26.7368 37.8312 26.6807 37.9541C26.6246 38.0771 26.5333 38.1807 26.4185 38.252L24.6007 39.3811L25.1904 40.9504L27.3024 40.6022C27.4357 40.5801 27.5726 40.598 27.6958 40.6535C27.819 40.709 27.9231 40.7996 27.995 40.9141C28.5767 41.8426 29.332 42.6503 30.2194 43.293C30.3286 43.3722 30.412 43.4818 30.4592 43.6081C30.5064 43.7345 30.5153 43.8719 30.4848 44.0033L29.9993 46.0868L31.5257 46.7785L32.7737 45.0406C32.8524 44.9309 32.9617 44.8469 33.088 44.7991C33.2142 44.7513 33.3518 44.7418 33.4834 44.7718C34.5516 45.0156 35.6567 45.0515 36.7385 44.8774C36.7741 44.8715 36.8101 44.8685 36.8461 44.8685Z" fill="currentColor"/>
        <path d="M35.3917 42.5074C34.0333 42.5075 32.7113 42.068 31.6235 41.2546C30.5356 40.4411 29.7404 39.2975 29.3566 37.9946C28.9729 36.6918 29.0213 35.2997 29.4945 34.0267C29.9678 32.7536 30.8405 31.6679 31.9822 30.9319C33.1239 30.196 34.4732 29.8493 35.8284 29.9437C37.1836 30.0381 38.4717 30.5685 39.5003 31.4557C40.5289 32.3428 41.2426 33.5391 41.5347 34.8654C41.8268 36.1918 41.6816 37.5771 41.1209 38.8142C40.6207 39.9142 39.8146 40.8472 38.7988 41.502C37.7831 42.1568 36.6004 42.5058 35.3917 42.5074ZM35.402 31.3037C34.5184 31.3024 33.6507 31.5393 32.8904 31.9894C32.13 32.4395 31.5051 33.0862 31.0813 33.8614C30.6575 34.6367 30.4505 35.5118 30.4822 36.3947C30.5138 37.2776 30.7829 38.1356 31.2612 38.8785C31.7394 39.6214 32.4091 40.2217 33.1997 40.6162C33.9904 41.0107 34.8727 41.1849 35.754 41.1203C36.6353 41.0558 37.4829 40.755 38.2076 40.2495C38.9323 39.744 39.5074 39.0525 39.8722 38.2479C40.2116 37.4998 40.358 36.6787 40.2981 35.8594C40.2381 35.0402 39.9738 34.2491 39.5291 33.5583C39.0845 32.8676 38.4738 32.2994 37.7528 31.9055C37.0318 31.5116 36.2236 31.3047 35.402 31.3037Z" fill="currentColor"/>
    </symbol>

    <symbol viewBox="0 0 48 42" fill="none" id="instrument">
        <path fill-rule="evenodd" clip-rule="evenodd" d="M11.1297 23.9438C10.3946 26.8442 10.0941 29.848 10.2469 32.8563H17.7216C18.1136 32.8569 18.4893 33.0128 18.7664 33.2899C19.0436 33.5669 19.1995 33.9426 19.2 34.3344V39.6051C19.1995 39.997 19.0436 40.3726 18.7664 40.6497C18.4893 40.9268 18.1136 41.0827 17.7216 41.0833H2.16617C1.77389 41.0833 1.39764 40.9276 1.12006 40.6505C0.842475 40.3733 0.686257 39.9974 0.685712 39.6051V33.5581C0.486337 25.3259 2.23795 20.5786 3.20557 18.606H2.43086C1.78644 18.6054 1.16856 18.3493 0.712827 17.8938C0.257089 17.4382 0.000726285 16.8206 0 16.1763V2.91792C0.000725973 2.27357 0.257067 1.65581 0.712785 1.20019C1.1685 0.744564 1.78638 0.488275 2.43086 0.487549H24.5239C24.6614 0.487549 24.7946 0.528819 24.907 0.604498L30.2133 3.84344H34.1747C34.2715 3.84351 34.3672 3.86407 34.4555 3.90378C34.5438 3.94348 34.6227 4.00142 34.6869 4.07379L37.0725 6.75508H45.247C45.3381 6.75509 45.4284 6.77329 45.5125 6.80861C45.5965 6.84392 45.6727 6.89565 45.7365 6.96075L47.804 9.06753C47.9296 9.19568 48 9.36798 48 9.54743C48 9.72688 47.9296 9.89918 47.804 10.0273L45.7372 12.1327C45.6733 12.1979 45.597 12.2497 45.5128 12.285C45.4286 12.3203 45.3383 12.3385 45.247 12.3384H37.0726L34.6869 15.0204C34.6226 15.0926 34.5437 15.1504 34.4554 15.19C34.3671 15.2296 34.2715 15.2501 34.1747 15.2501H30.219L24.8805 18.5086C24.7729 18.573 24.6496 18.6067 24.5242 18.606H17.9398L16.7397 23.4242C16.7026 23.5728 16.6168 23.7047 16.496 23.7989C16.3752 23.8931 16.2264 23.9441 16.0732 23.9438H11.1297ZM4.76182 18.606H11.5227C9.52089 23.0767 8.60962 27.9612 8.86666 32.8563H2.0454C1.95045 24.2194 4.11897 19.7412 4.76182 18.606ZM11.5119 22.5727H15.5383L16.5257 18.606H13.0334C12.4314 19.8947 11.9236 21.2205 11.5119 22.5727ZM17.3375 17.2348H12.6182C12.6068 17.2345 12.5953 17.2345 12.5839 17.2348H4.41474C4.38933 17.2334 4.36386 17.2334 4.33844 17.2348H2.43086C2.15006 17.2346 1.8808 17.1231 1.68217 16.9246C1.48355 16.7262 1.37179 16.457 1.37143 16.1763V2.91792C1.37179 2.63711 1.48353 2.3679 1.68213 2.16934C1.88074 1.97078 2.15 1.85906 2.43086 1.8587H4.51269V6.81885C4.51414 7.38206 4.73856 7.9218 5.1369 8.32005C5.53524 8.71831 6.07508 8.94269 6.63841 8.94413H16.9063C17.4707 8.94359 18.0119 8.71923 18.411 8.32029C18.8102 7.92134 19.0347 7.38039 19.0355 6.8161V1.8587H23.8382V17.2348H17.4707C17.4265 17.2305 17.3819 17.2305 17.3375 17.2348ZM17.7216 34.2275C17.75 34.2275 17.7772 34.2388 17.7973 34.2588C17.8173 34.2789 17.8286 34.3061 17.8286 34.3344V39.6051C17.8286 39.6192 17.8258 39.6331 17.8205 39.6461C17.8151 39.659 17.8072 39.6708 17.7973 39.6808C17.7873 39.6907 17.7755 39.6986 17.7626 39.704C17.7496 39.7093 17.7357 39.7121 17.7216 39.7121H2.16412C2.15007 39.7121 2.13616 39.7093 2.12318 39.704C2.1102 39.6986 2.09841 39.6907 2.08848 39.6808C2.07854 39.6708 2.07066 39.659 2.06529 39.6461C2.05991 39.6331 2.05714 39.6192 2.05714 39.6051V34.2275H17.7216ZM5.88138 1.8587V6.8161C5.88246 7.01578 5.96228 7.20697 6.1035 7.34816C6.24472 7.48936 6.43595 7.56916 6.63567 7.57024H16.9063C17.1066 7.57006 17.2987 7.49066 17.4407 7.34937C17.5827 7.20808 17.663 7.01637 17.664 6.8161V1.8587H5.88138ZM44.9596 8.12623H37.4504V10.9673H44.959L46.3544 9.54675L44.9596 8.12623ZM36.0789 7.70118L33.8668 5.21459H30.7125V13.8789H33.8668L36.0789 11.393V7.70118ZM29.3411 4.91431V14.1792L25.2097 16.6994V14.0976H26.4563C26.6382 14.0976 26.8126 14.0254 26.9412 13.8968C27.0698 13.7682 27.142 13.5939 27.142 13.412C27.142 13.2302 27.0698 13.0558 26.9412 12.9273C26.8126 12.7987 26.6382 12.7265 26.4563 12.7265H25.2097V10.2323H26.4563C26.6382 10.2323 26.8126 10.1601 26.9412 10.0315C27.0698 9.90295 27.142 9.72857 27.142 9.54674C27.142 9.36492 27.0698 9.19054 26.9412 9.06197C26.8126 8.9334 26.6382 8.86117 26.4563 8.86117H25.2097V6.36774H26.4563C26.6382 6.36774 26.8126 6.29551 26.9412 6.16694C27.0698 6.03837 27.142 5.86399 27.142 5.68216C27.142 5.50034 27.0698 5.32596 26.9412 5.19739C26.8126 5.06882 26.6382 4.99658 26.4563 4.99658H25.2097V2.39414L29.3411 4.91431Z" fill="currentColor"/>
    </symbol>

    <symbol viewBox="0 0 48 40" fill="none" id="tractor">
        <path d="M11.8311 39.4658C5.29704 39.4658 0 34.1699 0 27.637C0 21.1041 5.29704 15.8082 11.8311 15.8082C18.3653 15.8082 23.6623 21.1042 23.6623 27.637V27.6391C23.6541 34.1681 18.3616 39.4586 11.8311 39.4658ZM11.8311 17.1806C6.05501 17.1806 1.37262 21.8621 1.37262 27.637C1.37262 33.4118 6.0551 38.0934 11.8311 38.0934C17.6064 38.0934 22.2886 33.4131 22.2897 27.639C22.2833 21.8667 17.6045 17.189 11.8311 17.1826V17.1806Z" fill="currentColor"/>
        <path d="M11.8311 34.594C7.99005 34.5952 4.87525 31.4828 4.8741 27.6425C4.87296 23.8022 7.98594 20.688 11.827 20.6869C15.6681 20.6857 18.7829 23.7981 18.7841 27.6384V27.6391C18.7803 31.4773 15.6701 34.5884 11.8311 34.594ZM11.8311 22.0585C8.74811 22.0573 6.24787 24.5552 6.24672 27.6376C6.24557 30.7201 8.744 33.2198 11.827 33.2209C14.9101 33.2221 17.4103 30.7242 17.4115 27.6418C17.4115 27.6408 17.4115 27.6399 17.4115 27.639C17.4077 24.5589 14.9118 22.0627 11.8311 22.0577V22.0585Z" fill="currentColor"/>
        <path d="M5.33875 19.272C5.31953 19.272 5.3003 19.272 5.28107 19.272C4.90338 19.2403 4.62279 18.9085 4.65445 18.5309L6.11088 1.11888C6.14101 0.741172 6.47183 0.459301 6.84961 0.489525C7.2274 0.519654 7.50933 0.850401 7.4791 1.22811C7.479 1.22993 7.47881 1.23174 7.47862 1.23347L6.01885 18.6435C5.989 18.9974 5.69396 19.2701 5.33875 19.272Z" fill="currentColor"/>
        <path d="M35.3309 32.5012H22.1607C21.7817 32.5012 21.4744 32.194 21.4744 31.815C21.4744 31.4361 21.7817 31.1289 22.1607 31.1289H35.3309C35.7099 31.1289 36.0172 31.4361 36.0172 31.815C36.0172 32.194 35.7099 32.5012 35.3309 32.5012Z" fill="currentColor"/>
        <path d="M47.3137 32.5012H44.1292C43.7502 32.5012 43.4429 32.194 43.4429 31.815C43.4429 31.4361 43.7502 31.1289 44.1292 31.1289H47.3137C47.6927 31.1289 48 31.4361 48 31.815C48 32.194 47.6927 32.5012 47.3137 32.5012Z" fill="currentColor"/>
        <path d="M39.7341 39.4658C36.6639 39.4658 34.1751 36.9775 34.1751 33.9079C34.1751 30.8383 36.6639 28.3499 39.7341 28.3499C42.8044 28.3499 45.2932 30.8383 45.2932 33.9079C45.288 36.9753 42.8022 39.4605 39.7341 39.4658ZM39.7341 29.7161C37.4221 29.7161 35.5477 31.5901 35.5477 33.9018C35.5477 36.2134 37.422 38.0874 39.7341 38.0874C42.0463 38.0874 43.9206 36.2134 43.9206 33.9018C43.9153 31.5926 42.0437 29.7224 39.7341 29.7183V29.7161Z" fill="currentColor"/>
        <path d="M39.7341 36.682C38.201 36.6824 36.9577 35.44 36.9573 33.9072C36.957 32.3744 38.1996 31.1313 39.7327 31.131C41.266 31.1306 42.5091 32.3729 42.5095 33.9058V33.9079C42.5073 35.4394 41.266 36.6801 39.7341 36.682ZM39.7341 32.504C38.9591 32.5036 38.3303 33.1315 38.33 33.9065C38.3296 34.6815 38.9576 35.3101 39.7328 35.3104C40.5079 35.3108 41.1366 34.6829 41.137 33.908C41.1366 33.1332 40.509 32.5051 39.7341 32.504Z" fill="currentColor"/>
        <path d="M40.1562 21.3614H36.21C35.831 21.3614 35.5237 21.0542 35.5237 20.6752C35.5237 20.2963 35.831 19.9891 36.21 19.9891H40.1562C40.5353 19.9891 40.8425 20.2963 40.8425 20.6752C40.8425 21.0542 40.5353 21.3614 40.1562 21.3614Z" fill="currentColor"/>
        <path d="M40.1562 24.1472H36.21C35.831 24.1472 35.5237 23.84 35.5237 23.461C35.5237 23.0821 35.831 22.7749 36.21 22.7749H40.1562C40.5353 22.7749 40.8425 23.0821 40.8425 23.461C40.8425 23.84 40.5353 24.1472 40.1562 24.1472Z" fill="currentColor"/>
        <path d="M47.3137 32.504C46.9347 32.504 46.6274 32.1968 46.6274 31.8178V20.6718C46.6236 18.7455 45.0607 17.186 43.1341 17.186H28.3786C28.0582 17.1859 27.7804 16.964 27.7095 16.6516L24.3576 1.86407H6.79441C6.41538 1.86407 6.1081 1.55685 6.1081 1.1779C6.1081 0.798943 6.41538 0.491725 6.79441 0.491725H24.906C25.2264 0.49182 25.5043 0.713721 25.5751 1.0262L28.927 15.8137H43.1335C45.8177 15.8148 47.9945 17.988 47.9993 20.6717V31.8177C47.9993 32.1965 47.6925 32.5036 47.3137 32.504Z" fill="currentColor"/>
        <path d="M38.7418 10.5989C38.3628 10.5989 38.0555 10.2917 38.0555 9.91275V7.95036C38.0563 6.91441 37.218 6.07329 36.1819 6.07023C35.8028 6.07023 35.4956 5.76302 35.4956 5.38406C35.4956 5.00511 35.8028 4.69789 36.1819 4.69789C37.9756 4.7021 39.4277 6.15689 39.4281 7.95027V9.91265C39.4281 10.2917 39.1208 10.5989 38.7418 10.5989Z" fill="currentColor"/>
        <path d="M27.8515 1.86407H4.11786C3.73883 1.86407 3.43155 1.55685 3.43155 1.1779C3.43155 0.798943 3.73883 0.491725 4.11786 0.491725H27.8516C28.2306 0.491725 28.5379 0.798943 28.5379 1.1779C28.5379 1.55685 28.2306 1.86407 27.8515 1.86407Z" fill="currentColor"/>
        <path d="M40.4081 17.1827H37.0775C36.6985 17.1827 36.3912 16.8755 36.3912 16.4965V9.90931C36.3912 9.53036 36.6985 9.22314 37.0775 9.22314H40.4088C40.7878 9.22314 41.0951 9.53036 41.0951 9.90931V16.4965C41.0951 16.8755 40.7878 17.1827 40.4088 17.1827C40.4086 17.1827 40.4084 17.1827 40.4081 17.1827ZM37.7631 15.8103H39.7218V10.5955H37.7638L37.7631 15.8103Z" fill="currentColor"/>
        <path d="M27.3012 12.4309H14.3918C14.0127 12.4309 13.7054 12.1237 13.7054 11.7448V1.1779C13.7054 0.798943 14.0127 0.491725 14.3918 0.491725C14.7708 0.491725 15.0781 0.798943 15.0781 1.1779V11.0587H27.3012C27.6802 11.0587 27.9875 11.3659 27.9875 11.7449C27.9875 12.1237 27.6802 12.4309 27.3012 12.4309Z" fill="currentColor"/>
    </symbol>

    <symbol viewBox="0 0 48 43" fill="none" id="hard-tractor">
        <path d="M27.6164 31.1242H4.38925C3.75318 31.1228 3.14357 30.8695 2.6938 30.4198C2.24402 29.9701 1.9907 29.3607 1.98925 28.7247V18.4212C1.9907 17.7852 2.24402 17.1757 2.6938 16.726C3.14357 16.2763 3.75318 16.0231 4.38925 16.0216H13.0478C13.2647 16.0218 13.4761 15.9534 13.6519 15.8262L18.0404 12.6506C18.4497 12.3539 18.9426 12.1945 19.4482 12.1954H27.6164C28.2525 12.1967 28.8623 12.4499 29.3121 12.8996C29.7619 13.3493 30.0151 13.9589 30.0164 14.5949V28.7227C30.0157 29.359 29.7627 29.9691 29.3128 30.4193C28.8629 30.8695 28.2529 31.123 27.6164 31.1242ZM4.38925 17.3907C4.11646 17.3907 3.85484 17.4991 3.66194 17.6919C3.46905 17.8848 3.36068 18.1464 3.36068 18.4191V28.7227C3.36068 28.9954 3.46905 29.257 3.66194 29.4498C3.85484 29.6427 4.11646 29.751 4.38925 29.751H27.6144C27.8872 29.751 28.1488 29.6427 28.3417 29.4498C28.5346 29.257 28.6429 28.9954 28.6429 28.7227V14.5956C28.6429 14.3229 28.5346 14.0613 28.3417 13.8685C28.1488 13.6756 27.8872 13.5673 27.6144 13.5673H19.4516C19.2347 13.5671 19.0232 13.6354 18.8475 13.7626L14.4555 16.9355C14.0463 17.2324 13.5534 17.3918 13.0478 17.3907H4.38925Z" fill="currentColor"/>
        <path d="M27.3339 42.0503H4.67382C3.43425 42.0503 2.24544 41.558 1.36893 40.6816C0.492419 39.8053 0 38.6167 0 37.3774C0 36.1381 0.492419 34.9495 1.36893 34.0732C2.24544 33.1968 3.43425 32.7045 4.67382 32.7045H27.3339C28.5735 32.7045 29.7623 33.1968 30.6388 34.0732C31.5153 34.9495 32.0077 36.1381 32.0077 37.3774C32.0077 38.6167 31.5153 39.8053 30.6388 40.6816C29.7623 41.558 28.5735 42.0503 27.3339 42.0503ZM4.67382 34.0756C3.79797 34.0756 2.958 34.4235 2.33868 35.0427C1.71936 35.6619 1.37143 36.5017 1.37143 37.3774C1.37143 38.2531 1.71936 39.0929 2.33868 39.7121C2.958 40.3313 3.79797 40.6791 4.67382 40.6791H27.3339C28.2098 40.6791 29.0497 40.3313 29.6691 39.7121C30.2884 39.0929 30.6363 38.2531 30.6363 37.3774C30.6363 36.5017 30.2884 35.6619 29.6691 35.0427C29.0497 34.4235 28.2098 34.0756 27.3339 34.0756H4.67382Z" fill="currentColor"/>
        <path d="M5.67636 39.8722C5.18252 39.8724 4.69974 39.726 4.28911 39.4517C3.87848 39.1775 3.55846 38.7876 3.36954 38.3314C3.18062 37.8752 3.13129 37.3732 3.2278 36.889C3.32431 36.4048 3.56232 35.9601 3.91171 35.6111C4.26109 35.2622 4.70616 35.0247 5.19058 34.9288C5.675 34.8328 6.177 34.8827 6.63307 35.0721C7.08913 35.2615 7.47876 35.5819 7.75264 35.9927C8.02652 36.4036 8.17235 36.8864 8.17167 37.3801C8.17004 38.041 7.90653 38.6744 7.43884 39.1415C6.97115 39.6085 6.3374 39.8713 5.67636 39.8722ZM5.67636 36.253C5.45391 36.2529 5.23642 36.3187 5.05139 36.4422C4.86637 36.5657 4.72212 36.7412 4.6369 36.9466C4.55168 37.1521 4.52931 37.3782 4.57263 37.5963C4.61594 37.8145 4.72299 38.0149 4.88024 38.1722C5.03748 38.3295 5.23786 38.4366 5.45603 38.4801C5.67419 38.5235 5.90034 38.5013 6.10587 38.4162C6.31139 38.3311 6.48707 38.187 6.61067 38.0021C6.73427 37.8172 6.80024 37.5998 6.80024 37.3774C6.80006 37.0794 6.68161 36.7936 6.4709 36.5828C6.26019 36.372 5.97444 36.2534 5.67636 36.253Z" fill="currentColor"/>
        <path d="M12.5616 39.8722C12.0677 39.8724 11.585 39.726 11.1743 39.4517C10.7637 39.1775 10.4437 38.7876 10.2548 38.3314C10.0658 37.8752 10.0165 37.3732 10.113 36.889C10.2095 36.4048 10.4475 35.9601 10.7969 35.6111C11.1463 35.2622 11.5914 35.0247 12.0758 34.9288C12.5602 34.8328 13.0622 34.8827 13.5183 35.0721C13.9744 35.2615 14.364 35.5819 14.6379 35.9927C14.9117 36.4036 15.0576 36.8864 15.0569 37.3801C15.0553 38.041 14.7918 38.6744 14.3241 39.1415C13.8564 39.6085 13.2226 39.8713 12.5616 39.8722ZM12.5616 36.253C12.3391 36.2529 12.1216 36.3187 11.9366 36.4422C11.7516 36.5657 11.6073 36.7412 11.5221 36.9466C11.4369 37.1521 11.4145 37.3782 11.4579 37.5963C11.5012 37.8145 11.6082 38.0149 11.7655 38.1722C11.9227 38.3295 12.1231 38.4366 12.3413 38.4801C12.5594 38.5235 12.7856 38.5013 12.9911 38.4162C13.1966 38.3311 13.3723 38.187 13.4959 38.0021C13.6195 37.8172 13.6855 37.5998 13.6855 37.3774C13.6853 37.0794 13.5668 36.7936 13.3561 36.5828C13.1454 36.372 12.8597 36.2534 12.5616 36.253Z" fill="currentColor"/>
        <path d="M19.4468 39.8722C18.9531 39.8721 18.4704 39.7255 18.06 39.4511C17.6495 39.1766 17.3297 38.7866 17.141 38.3304C16.9523 37.8742 16.9032 37.3723 16.9998 36.8882C17.0965 36.404 17.3346 35.9595 17.6841 35.6107C18.0335 35.2619 18.4786 35.0245 18.9629 34.9287C19.4473 34.8328 19.9493 34.8828 20.4052 35.0722C20.8612 35.2616 21.2508 35.582 21.5246 35.9928C21.7984 36.4037 21.9442 36.8865 21.9435 37.3801C21.9419 38.0413 21.6782 38.6748 21.2102 39.1419C20.7422 39.6091 20.1081 39.8717 19.4468 39.8722ZM19.4468 36.253C19.2246 36.2532 19.0073 36.3192 18.8225 36.4427C18.6378 36.5662 18.4937 36.7417 18.4086 36.947C18.3235 37.1523 18.3012 37.3782 18.3445 37.5962C18.3877 37.8141 18.4946 38.0144 18.6516 38.1717C18.8086 38.329 19.0088 38.4362 19.2267 38.4799C19.4447 38.5235 19.6706 38.5016 19.8761 38.4169C20.0816 38.3322 20.2574 38.1885 20.3813 38.004C20.5052 37.8194 20.5716 37.6024 20.5721 37.3801C20.5724 37.2322 20.5435 37.0857 20.487 36.949C20.4306 36.8122 20.3478 36.688 20.2432 36.5833C20.1387 36.4786 20.0146 36.3955 19.8779 36.3389C19.7413 36.2822 19.5948 36.253 19.4468 36.253Z" fill="currentColor"/>
        <path d="M26.3321 39.8722C25.8383 39.8724 25.3555 39.726 24.9448 39.4517C24.5342 39.1775 24.2142 38.7876 24.0253 38.3314C23.8364 37.8752 23.787 37.3732 23.8835 36.889C23.98 36.4048 24.2181 35.9601 24.5674 35.6111C24.9168 35.2622 25.3619 35.0247 25.8463 34.9288C26.3307 34.8328 26.8327 34.8827 27.2888 35.0721C27.7449 35.2615 28.1345 35.5819 28.4084 35.9927C28.6822 36.4036 28.8281 36.8864 28.8274 37.3801C28.8258 38.041 28.5623 38.6744 28.0946 39.1415C27.6269 39.6085 26.9931 39.8713 26.3321 39.8722ZM26.3321 36.253C26.1096 36.2529 25.8921 36.3187 25.7071 36.4422C25.5221 36.5657 25.3779 36.7412 25.2926 36.9466C25.2074 37.1521 25.185 37.3782 25.2284 37.5963C25.2717 37.8145 25.3787 38.0149 25.536 38.1722C25.6932 38.3295 25.8936 38.4366 26.1118 38.4801C26.3299 38.5235 26.5561 38.5013 26.7616 38.4162C26.9671 38.3311 27.1428 38.187 27.2664 38.0021C27.39 37.8172 27.456 37.5998 27.456 37.3774C27.4558 37.0794 27.3373 36.7936 27.1266 36.5828C26.9159 36.372 26.6302 36.2534 26.3321 36.253Z" fill="currentColor"/>
        <path d="M26.8025 34.0757H5.20595C5.02408 34.0757 4.84967 34.0034 4.72107 33.8749C4.59248 33.7463 4.52023 33.5719 4.52023 33.3901V30.4421C4.52023 30.2603 4.59248 30.0859 4.72107 29.9573C4.84967 29.8287 5.02408 29.7565 5.20595 29.7565H26.8025C26.9844 29.7565 27.1588 29.8287 27.2874 29.9573C27.416 30.0859 27.4882 30.2603 27.4882 30.4421V33.3901C27.4882 33.5719 27.416 33.7463 27.2874 33.8749C27.1588 34.0034 26.9844 34.0757 26.8025 34.0757ZM5.89166 32.7045H26.1168V31.1277H5.89166V32.7045Z" fill="currentColor"/>
        <path d="M29.3328 24.8217H19.2528C18.8709 24.8217 18.5046 24.67 18.2346 24.4C17.9645 24.13 17.8128 23.7638 17.8128 23.382V16.856C17.8128 16.6669 17.85 16.4797 17.9224 16.305C17.9948 16.1303 18.1008 15.9716 18.2346 15.8379C18.3683 15.7043 18.527 15.5982 18.7017 15.5259C18.8764 15.4535 19.0637 15.4163 19.2528 15.4163H29.3328C29.5146 15.4163 29.6891 15.4885 29.8177 15.6171C29.9462 15.7456 30.0185 15.92 30.0185 16.1018V24.1361C30.0185 24.318 29.9462 24.4923 29.8177 24.6209C29.6891 24.7495 29.5146 24.8217 29.3328 24.8217ZM19.2548 16.7854C19.2367 16.7854 19.2192 16.7926 19.2064 16.8054C19.1935 16.8183 19.1863 16.8357 19.1863 16.8539V23.3806C19.1863 23.3988 19.1935 23.4162 19.2064 23.4291C19.2192 23.442 19.2367 23.4492 19.2548 23.4492H28.6491V16.7854H19.2548Z" fill="currentColor"/>
        <path d="M42.1892 17.6005C42.0545 17.6005 41.9228 17.5609 41.8105 17.4865C41.6981 17.4121 41.6102 17.3063 41.5577 17.1823L37.4002 7.36963C37.3292 7.20217 37.3276 7.01336 37.3958 6.84474C37.4641 6.67612 37.5965 6.5415 37.764 6.4705C37.9315 6.39949 38.1203 6.39792 38.289 6.46613C38.4576 6.53434 38.5923 6.66673 38.6633 6.8342L42.8208 16.6476C42.8649 16.7518 42.8826 16.8654 42.8721 16.9781C42.8617 17.0908 42.8235 17.1992 42.761 17.2936C42.6984 17.388 42.6135 17.4654 42.5137 17.519C42.4139 17.5725 42.3025 17.6005 42.1892 17.6005Z" fill="currentColor"/>
        <path d="M44.4301 16.5173C44.2964 16.5176 44.1655 16.4789 44.0535 16.4058C43.9416 16.3327 43.8534 16.2285 43.7999 16.106L39.6212 6.46056C39.5489 6.29364 39.5459 6.10485 39.6128 5.93571C39.6798 5.76658 39.8112 5.63096 39.9781 5.55868C40.1451 5.4864 40.3339 5.48339 40.5031 5.55032C40.6722 5.61724 40.8079 5.74861 40.8802 5.91552L45.0589 15.5589C45.1045 15.6632 45.1233 15.7773 45.1137 15.8907C45.1042 16.0042 45.0665 16.1135 45.0041 16.2087C44.9417 16.304 44.8565 16.3822 44.7563 16.4363C44.6561 16.4904 44.544 16.5187 44.4301 16.5187V16.5173Z" fill="currentColor"/>
        <path d="M25.994 13.5645H23.0489C22.867 13.5645 22.6926 13.4923 22.564 13.3637C22.4354 13.2352 22.3632 13.0608 22.3632 12.8789V8.61876C22.3611 8.17869 22.4945 7.74865 22.7454 7.38705C22.9963 7.02546 23.3524 6.74985 23.7655 6.59768L35.1483 2.34709C35.3187 2.28345 35.5074 2.2901 35.6729 2.36557C35.8384 2.44104 35.9672 2.57915 36.0308 2.74952C36.0945 2.9199 36.0878 3.10857 36.0123 3.27404C35.9368 3.43951 35.7987 3.56822 35.6283 3.63186L24.2455 7.88245C24.095 7.93796 23.9652 8.03837 23.8737 8.17007C23.7822 8.30177 23.7334 8.45841 23.7339 8.61876V12.1934H25.3076V9.63479C25.3077 9.4949 25.3506 9.35837 25.4305 9.24355C25.5104 9.12872 25.6235 9.04108 25.7547 8.9924L35.6057 5.32661C35.69 5.2951 35.7798 5.28052 35.8698 5.28369C35.9598 5.28686 36.0483 5.30772 36.1303 5.34509C36.2122 5.38246 36.286 5.4356 36.3474 5.50148C36.4088 5.56736 36.4567 5.64469 36.4882 5.72905C36.5197 5.81341 36.5343 5.90315 36.5311 5.99314C36.5279 6.08314 36.5071 6.17163 36.4697 6.25356C36.4323 6.3355 36.3792 6.40927 36.3133 6.47066C36.2474 6.53206 36.17 6.57988 36.0857 6.61139L26.6797 10.1113V12.8789C26.6797 13.0608 26.6075 13.2352 26.4789 13.3637C26.3503 13.4923 26.1759 13.5645 25.994 13.5645Z" fill="currentColor"/>
        <path d="M38.0914 7.70694C37.3773 7.70694 36.6793 7.49522 36.0856 7.09857C35.4918 6.70191 35.0291 6.13813 34.7559 5.47853C34.4826 4.81893 34.4112 4.09313 34.5505 3.39292C34.6899 2.69271 35.0338 2.04955 35.5388 1.54477C36.0438 1.03999 36.6871 0.696267 37.3875 0.557068C38.0879 0.417869 38.8138 0.489449 39.4735 0.762754C40.1331 1.03606 40.6969 1.49881 41.0936 2.09249C41.4902 2.68618 41.7018 3.38412 41.7017 4.09805C41.7004 5.05492 41.3196 5.97222 40.6428 6.64876C39.966 7.3253 39.0484 7.70585 38.0914 7.70694ZM38.0914 1.85895C37.6486 1.85895 37.2158 1.99021 36.8476 2.23614C36.4795 2.48207 36.1925 2.83163 36.023 3.2406C35.8536 3.64958 35.8092 4.09962 35.8955 4.53381C35.9818 4.968 36.195 5.36685 36.508 5.67992C36.8211 5.993 37.2199 6.20624 37.6542 6.29269C38.0884 6.37913 38.5386 6.3349 38.9477 6.16559C39.3568 5.99627 39.7065 5.70948 39.9526 5.34146C40.1987 4.97345 40.3301 4.54074 40.3302 4.09805C40.3297 3.50449 40.0937 2.93539 39.6739 2.51561C39.2542 2.09584 38.6851 1.85968 38.0914 1.85895Z" fill="currentColor"/>
        <path d="M38.0914 4.9516C38.5629 4.9516 38.9451 4.56946 38.9451 4.09806C38.9451 3.62666 38.5629 3.24451 38.0914 3.24451C37.6199 3.24451 37.2377 3.62666 37.2377 4.09806C37.2377 4.56946 37.6199 4.9516 38.0914 4.9516Z" fill="currentColor"/>
        <path d="M38.0914 5.29508C37.8547 5.2944 37.6236 5.22362 37.4272 5.09168C37.2307 4.95974 37.0778 4.77255 36.9877 4.55377C36.8976 4.33498 36.8744 4.09441 36.921 3.86244C36.9676 3.63046 37.0819 3.4175 37.2495 3.25043C37.417 3.08337 37.6304 2.9697 37.8625 2.92379C38.0947 2.87788 38.3352 2.90179 38.5538 2.99249C38.7724 3.08319 38.9591 3.23661 39.0905 3.43339C39.2219 3.63016 39.2921 3.86146 39.2921 4.09806C39.292 4.25552 39.2608 4.41141 39.2004 4.55682C39.14 4.70224 39.0515 4.83431 38.94 4.94549C38.8285 5.05667 38.6961 5.14478 38.5505 5.20476C38.4049 5.26475 38.2489 5.29544 38.0914 5.29508ZM38.0914 3.5873C37.9902 3.5873 37.8913 3.6173 37.8072 3.6735C37.7231 3.72969 37.6575 3.80957 37.6188 3.90302C37.5801 3.99648 37.5699 4.09931 37.5897 4.19852C37.6094 4.29773 37.6581 4.38886 37.7297 4.46039C37.8012 4.53192 37.8924 4.58062 37.9916 4.60036C38.0908 4.62009 38.1937 4.60996 38.2872 4.57125C38.3806 4.53255 38.4605 4.46699 38.5167 4.38289C38.5729 4.29878 38.6029 4.1999 38.6029 4.09874C38.603 4.03152 38.5899 3.96494 38.5642 3.90281C38.5385 3.84068 38.5009 3.78422 38.4534 3.73666C38.4058 3.68909 38.3494 3.65136 38.2873 3.62561C38.2252 3.59987 38.1586 3.58662 38.0914 3.58662V3.5873Z" fill="currentColor"/>
        <path d="M40.1424 30.1589C38.5736 30.1587 37.0433 29.6739 35.7607 28.7708C34.4782 27.8677 33.5061 26.5904 32.9773 25.1138C32.916 24.943 32.9249 24.7549 33.002 24.5907C33.0791 24.4265 33.2182 24.2995 33.3888 24.2376L42.1933 21.097L42.4841 19.6812C42.5002 19.5913 42.5342 19.5054 42.584 19.4287C42.6338 19.3521 42.6984 19.2861 42.7741 19.2348C42.8498 19.1835 42.935 19.1478 43.0246 19.1299C43.1143 19.112 43.2066 19.1122 43.2962 19.1305C43.3858 19.1488 43.4708 19.1848 43.5463 19.2364C43.6218 19.288 43.6861 19.3542 43.7356 19.4311C43.7851 19.508 43.8187 19.594 43.8345 19.684C43.8503 19.7741 43.8478 19.8664 43.8274 19.9555L43.4626 21.749C43.4389 21.8645 43.3858 21.9719 43.3084 22.0609C43.2311 22.1499 43.1321 22.2174 43.021 22.257L34.5339 25.2859C35.206 26.6637 36.3623 27.7455 37.7819 28.3246C39.2014 28.9038 40.7847 28.9395 42.229 28.4251L45.6205 27.2137C46.0006 27.0767 46.3108 26.7945 46.4832 26.4292C46.6556 26.0638 46.676 25.645 46.5401 25.2646L44.6125 19.8705C44.5784 19.7849 44.5619 19.6934 44.564 19.6013C44.566 19.5092 44.5866 19.4185 44.6245 19.3345C44.6624 19.2506 44.7169 19.1751 44.7846 19.1127C44.8523 19.0503 44.9319 19.0021 45.0186 18.9711C45.1054 18.9401 45.1975 18.9268 45.2894 18.9322C45.3814 18.9376 45.4713 18.9614 45.5539 19.0023C45.6364 19.0432 45.7099 19.1002 45.7699 19.1701C45.8299 19.24 45.8752 19.3213 45.903 19.4091L47.832 24.8039C48.0894 25.527 48.0498 26.3226 47.7216 27.0166C47.3935 27.7105 46.8037 28.2461 46.0813 28.506L42.6898 29.7167C41.8723 30.0092 41.0106 30.1587 40.1424 30.1589Z" fill="currentColor"/>
        <path d="M44.0482 20.7055C43.3182 20.7058 42.6169 20.4214 42.0933 19.9128C41.5698 19.4042 41.2653 18.7115 41.2445 17.982C41.2237 17.2524 41.4883 16.5435 41.9821 16.006C42.4759 15.4684 43.1598 15.1446 43.8887 15.1033C44.6175 15.0621 45.3337 15.3066 45.885 15.7849C46.4363 16.2633 46.7793 16.9378 46.8411 17.665C46.9028 18.3922 46.6785 19.1149 46.2157 19.6793C45.753 20.2438 45.0883 20.6055 44.3629 20.6877C44.2584 20.6994 44.1533 20.7054 44.0482 20.7055ZM44.055 16.483C44.0021 16.4831 43.9493 16.4858 43.8966 16.4913C43.7103 16.5119 43.5299 16.5691 43.3657 16.6595C43.2015 16.75 43.0568 16.872 42.9399 17.0185C42.8229 17.1649 42.736 17.3331 42.6842 17.5132C42.6323 17.6933 42.6165 17.8819 42.6377 18.0681C42.6577 18.2543 42.7144 18.4346 42.8047 18.5987C42.895 18.7628 43.017 18.9073 43.1636 19.0238C43.3413 19.1665 43.5507 19.2645 43.7741 19.3096C43.9975 19.3547 44.2285 19.3456 44.4477 19.283C44.6669 19.2204 44.8678 19.1062 45.0338 18.95C45.1997 18.7937 45.3257 18.5999 45.4012 18.3849C45.4768 18.1699 45.4997 17.9399 45.468 17.7143C45.4363 17.4886 45.3509 17.2738 45.2191 17.0879C45.0872 16.902 44.9127 16.7505 44.7102 16.6459C44.5076 16.5414 44.283 16.487 44.055 16.4871V16.483Z" fill="currentColor"/>
        <path d="M44.0544 18.4109C44.3319 18.4109 44.557 18.1859 44.557 17.9084C44.557 17.6308 44.3319 17.4058 44.0544 17.4058C43.7768 17.4058 43.5517 17.6308 43.5517 17.9084C43.5517 18.1859 43.7768 18.4109 44.0544 18.4109Z" fill="currentColor"/>
        <path d="M44.0537 18.7537C43.8454 18.7532 43.6446 18.6761 43.4896 18.537C43.3347 18.3978 43.2364 18.2065 43.2137 17.9995C43.2014 17.8892 43.2109 17.7775 43.2418 17.6709C43.2727 17.5642 43.3242 17.4647 43.3936 17.378C43.4629 17.2913 43.5487 17.2191 43.6459 17.1655C43.7432 17.112 43.85 17.0781 43.9604 17.0658C44.0723 17.0503 44.1862 17.0575 44.2953 17.0867C44.4045 17.116 44.5066 17.1668 44.5958 17.2362C44.685 17.3056 44.7593 17.3922 44.8145 17.4907C44.8697 17.5893 44.9045 17.698 44.917 17.8102C44.9295 17.9225 44.9194 18.0361 44.8873 18.1444C44.8552 18.2527 44.8017 18.3535 44.7299 18.4408C44.6582 18.5281 44.5697 18.6001 44.4697 18.6527C44.3697 18.7053 44.2602 18.7373 44.1476 18.7468C44.1164 18.7508 44.0851 18.7531 44.0537 18.7537ZM43.8953 17.9262C43.8968 17.9474 43.9027 17.968 43.9126 17.9868C43.9226 18.0056 43.9363 18.0222 43.9529 18.0354C43.9695 18.0487 43.9886 18.0584 44.0092 18.0639C44.0297 18.0694 44.0512 18.0706 44.0722 18.0674C44.1142 18.0626 44.1526 18.0414 44.1791 18.0084C44.2055 17.9754 44.2179 17.9333 44.2134 17.8912C44.2113 17.8702 44.2049 17.8499 44.1948 17.8314C44.1847 17.813 44.171 17.7967 44.1545 17.7836C44.1207 17.7585 44.0791 17.7463 44.0372 17.7493C44.0161 17.7514 43.9956 17.7578 43.9769 17.7681C43.9583 17.7783 43.942 17.7922 43.9289 17.8089C43.9157 17.8252 43.9059 17.844 43.9002 17.8641C43.8944 17.8843 43.8927 17.9054 43.8953 17.9262Z" fill="currentColor"/>
    </symbol>

    <symbol viewBox="0 0 48 49" fill="none" id="energetic">
        <path d="M24 48.4788C19.2533 48.4788 14.6131 47.0715 10.6663 44.4348C6.71954 41.7982 3.6434 38.0507 1.8269 33.6661C0.0103988 29.2816 -0.464881 24.4569 0.461164 19.8023C1.38721 15.1477 3.67299 10.8721 7.02945 7.51633C10.3859 4.16054 14.6623 1.87522 19.3178 0.949354C23.9734 0.0234923 28.799 0.498678 33.1844 2.31482C37.5698 4.13096 41.3181 7.20649 43.9553 11.1525C46.5924 15.0985 48 19.7377 48 24.4835C47.9927 30.8452 45.4618 36.9443 40.9625 41.4427C36.4632 45.9411 30.363 48.4715 24 48.4788ZM24 1.85945C19.5245 1.85945 15.1495 3.18633 11.4282 5.67229C7.707 8.15826 4.80664 11.6917 3.09394 15.8257C1.38123 19.9597 0.933112 24.5086 1.80624 28.8973C2.67937 33.2859 4.83453 37.3171 7.99919 40.4812C11.1639 43.6452 15.1959 45.7999 19.5854 46.6729C23.9749 47.5458 28.5248 47.0978 32.6596 45.3854C36.7944 43.6731 40.3285 40.7733 42.815 37.0528C45.3014 33.3323 46.6286 28.9581 46.6286 24.4835C46.6217 18.4854 44.2354 12.7348 39.9932 8.4935C35.751 4.25216 29.9994 1.86634 24 1.85945Z" fill="currentColor"/>
        <path d="M24 43.2944C20.2788 43.2944 16.6412 42.1912 13.5472 40.1242C10.4531 38.0573 8.04159 35.1194 6.61755 31.6822C5.19352 28.2449 4.82092 24.4627 5.54689 20.8137C6.27286 17.1648 8.06478 13.813 10.696 11.1822C13.3273 8.55148 16.6798 6.75992 20.3294 6.0341C23.9791 5.30827 27.7621 5.68079 31.2 7.10454C34.638 8.5283 37.5764 10.9393 39.6438 14.0328C41.7112 17.1262 42.8146 20.7631 42.8146 24.4835C42.809 29.4708 40.8249 34.2521 37.2977 37.7786C33.7705 41.3051 28.9882 43.2888 24 43.2944ZM24 7.04449C20.55 7.04449 17.1775 8.06733 14.309 9.98366C11.4405 11.9 9.20473 14.6238 7.88452 17.8105C6.56431 20.9972 6.21891 24.5038 6.89202 27.8868C7.56512 31.2698 9.22649 34.3773 11.666 36.8162C14.1056 39.2552 17.2137 40.9161 20.5974 41.5889C23.9811 42.2618 27.4884 41.9163 30.6757 40.5962C33.863 39.2762 36.5872 37.0408 38.5038 34.1727C40.4204 31.3047 41.4433 27.9328 41.4432 24.4835C41.4379 19.8599 39.5985 15.4272 36.3283 12.1578C33.0582 8.8885 28.6245 7.04957 24 7.04449Z" fill="currentColor"/>
        <path d="M22.8768 35.4528C22.8216 35.4529 22.7665 35.4462 22.7129 35.4329C22.5773 35.3995 22.4551 35.3255 22.3627 35.2207C22.2703 35.1159 22.2121 34.9855 22.1959 34.8467L21.4416 28.3858L16.5257 27.6845C16.4111 27.6682 16.3025 27.6231 16.21 27.5535C16.1175 27.4838 16.0442 27.3919 15.9968 27.2863C15.9495 27.1807 15.9296 27.0649 15.9391 26.9495C15.9486 26.8342 15.9872 26.7231 16.0512 26.6267L24.5486 13.8207C24.6294 13.6965 24.7484 13.6019 24.8876 13.551C25.0268 13.5 25.1788 13.4956 25.3208 13.5383C25.4627 13.581 25.587 13.6686 25.675 13.7878C25.763 13.9071 25.81 14.0517 25.8089 14.1999L25.8466 21.6672H31.3748C31.4996 21.6673 31.6219 21.7014 31.7287 21.7658C31.8355 21.8303 31.9226 21.9226 31.9808 22.0329C32.039 22.1432 32.066 22.2673 32.0589 22.3918C32.0518 22.5163 32.0109 22.6365 31.9406 22.7394L23.4432 35.1539C23.3802 35.246 23.2957 35.3214 23.197 35.3735C23.0983 35.4256 22.9884 35.4528 22.8768 35.4528ZM17.797 26.4806L22.1568 27.1038C22.3064 27.1253 22.4448 27.1956 22.5503 27.3039C22.6559 27.4121 22.7227 27.5522 22.7403 27.7023L23.3451 32.8688L30.0747 23.0349H25.1657C24.9844 23.0349 24.8105 22.9632 24.682 22.8353C24.5535 22.7075 24.4809 22.534 24.48 22.3528L24.4498 16.4568L17.797 26.4806Z" fill="currentColor"/>
    </symbol>

    <symbol viewBox="0 0 48 35" fill="none" id="truck">
        <path d="M31.5429 29.1165H15.0446C14.8627 29.1165 14.6883 29.0442 14.5597 28.9157C14.4311 28.7871 14.3589 28.6127 14.3589 28.4309C14.3589 28.2491 14.4311 28.0747 14.5597 27.9461C14.6883 27.8175 14.8627 27.7453 15.0446 27.7453H30.8571L30.8571 1.69342L1.37143 1.69342L1.37143 27.7453H5.55429C5.73615 27.7453 5.91056 27.8175 6.03916 27.9461C6.16776 28.0747 6.24 28.2491 6.24 28.4309C6.24 28.6127 6.16776 28.7871 6.03916 28.9157C5.91056 29.0442 5.73615 29.1165 5.55429 29.1165H1.37143C1.0077 29.1165 0.658875 28.972 0.401682 28.7149C0.144489 28.4577 0 28.109 0 27.7453L0 1.69342C0 1.32977 0.144489 0.981008 0.401682 0.723867C0.658875 0.466726 1.0077 0.322266 1.37143 0.322266L30.8571 0.322266C31.2209 0.322266 31.5697 0.466726 31.8269 0.723867C32.0841 0.981008 32.2286 1.32977 32.2286 1.69342L32.2286 28.4309C32.2286 28.6127 32.1563 28.7871 32.0277 28.9157C31.8991 29.0442 31.7247 29.1165 31.5429 29.1165Z" fill="currentColor"/>
        <path d="M47.3143 29.1165H44.5166C44.3347 29.1165 44.1603 29.0442 44.0317 28.9157C43.9031 28.7871 43.8309 28.6127 43.8309 28.4309C43.8309 28.2491 43.9031 28.0747 44.0317 27.9461C44.1603 27.8175 44.3347 27.7453 44.5166 27.7453H46.6286L46.6286 15.2431L40.6629 7.8636L32.2286 7.8636L32.2286 27.7453L35.0263 27.7453C35.2081 27.7453 35.3826 27.8175 35.5112 27.9461C35.6398 28.0747 35.712 28.2491 35.712 28.4309C35.712 28.6127 35.6398 28.7871 35.5112 28.9157C35.3826 29.0442 35.2081 29.1165 35.0263 29.1165L31.5429 29.1165C31.361 29.1165 31.1866 29.0442 31.058 28.9157C30.9294 28.7871 30.8571 28.6127 30.8571 28.4309L30.8571 7.17803C30.8571 6.9962 30.9294 6.82182 31.058 6.69325C31.1866 6.56468 31.361 6.49245 31.5429 6.49245L40.992 6.49245C41.0943 6.49247 41.1953 6.51539 41.2877 6.55952C41.38 6.60365 41.4612 6.66787 41.5255 6.74749L47.8478 14.5699C47.9462 14.6918 48 14.8438 48 15.0005L48 28.4309C48 28.6127 47.9278 28.7871 47.7992 28.9157C47.6706 29.0442 47.4961 29.1165 47.3143 29.1165Z" fill="currentColor"/>
        <path d="M43.5428 18.8328H34.6286C34.4467 18.8328 34.2723 18.7606 34.1437 18.632C34.0151 18.5034 33.9428 18.3291 33.9428 18.1472V10.6059C33.9428 10.4241 34.0151 10.2497 34.1437 10.1211C34.2723 9.99255 34.4467 9.92032 34.6286 9.92032L39.0116 9.92032C39.114 9.92034 39.215 9.94326 39.3073 9.98739C39.3996 10.0315 39.4809 10.0957 39.5451 10.1754L44.0763 15.7813C44.1749 15.9034 44.2287 16.0556 44.2286 16.2125V18.1472C44.2286 18.3291 44.1563 18.5034 44.0277 18.632C43.8991 18.7606 43.7247 18.8328 43.5428 18.8328ZM35.3143 17.4617H42.8571V16.4545L38.6846 11.2915L35.3143 11.2915V17.4617Z" fill="currentColor"/>
        <path d="M10.3001 34.6011C9.21514 34.6011 8.15453 34.2794 7.25241 33.6768C6.35029 33.0741 5.64717 32.2175 5.23197 31.2153C4.81677 30.2132 4.70813 29.1104 4.9198 28.0465C5.13147 26.9826 5.65393 26.0053 6.42112 25.2383C7.18831 24.4712 8.16577 23.9489 9.2299 23.7372C10.294 23.5256 11.397 23.6342 12.3994 24.0493C13.4018 24.4645 14.2585 25.1674 14.8613 26.0694C15.4641 26.9713 15.7858 28.0317 15.7858 29.1165C15.7842 30.5706 15.2057 31.9647 14.1773 32.9929C13.1489 34.0211 11.7545 34.5994 10.3001 34.6011ZM10.3001 25.003C9.48638 25.003 8.69092 25.2443 8.01433 25.6962C7.33774 26.1482 6.8104 26.7907 6.499 27.5423C6.1876 28.2939 6.10613 29.121 6.26488 29.919C6.42363 30.7169 6.81547 31.4498 7.39087 32.0251C7.96626 32.6004 8.69936 32.9922 9.49745 33.1509C10.2955 33.3096 11.1228 33.2281 11.8746 32.9168C12.6264 32.6055 13.2689 32.0782 13.721 31.4018C14.1731 30.7253 14.4144 29.93 14.4144 29.1165C14.4131 28.0259 13.9792 26.9804 13.2079 26.2092C12.4366 25.4381 11.3909 25.0043 10.3001 25.003Z" fill="currentColor"/>
        <path d="M39.7714 34.6011C38.6864 34.6011 37.6258 34.2794 36.7237 33.6768C35.8216 33.0741 35.1185 32.2175 34.7033 31.2153C34.2881 30.2132 34.1794 29.1104 34.3911 28.0465C34.6028 26.9826 35.1252 26.0053 35.8924 25.2383C36.6596 24.4712 37.6371 23.9489 38.7012 23.7372C39.7653 23.5256 40.8683 23.6342 41.8707 24.0493C42.8731 24.4645 43.7298 25.1674 44.3326 26.0694C44.9354 26.9713 45.2571 28.0317 45.2571 29.1165C45.2555 30.5706 44.677 31.9647 43.6486 32.9929C42.6202 34.0211 41.2258 34.5994 39.7714 34.6011ZM39.7714 25.003C38.9577 25.003 38.1622 25.2443 37.4856 25.6962C36.8091 26.1482 36.2817 26.7907 35.9703 27.5423C35.6589 28.2939 35.5774 29.121 35.7362 29.919C35.8949 30.7169 36.2868 31.4498 36.8622 32.0251C37.4376 32.6004 38.1707 32.9922 38.9688 33.1509C39.7669 33.3096 40.5941 33.2281 41.3459 32.9168C42.0977 32.6055 42.7402 32.0782 43.1923 31.4018C43.6444 30.7253 43.8857 29.93 43.8857 29.1165C43.8846 28.0258 43.4508 26.9802 42.6795 26.209C41.9081 25.4378 40.8623 25.0041 39.7714 25.003Z" fill="currentColor"/>
        <path d="M39.7714 31.8588C39.2289 31.8588 38.6986 31.6979 38.2476 31.3966C37.7965 31.0953 37.445 30.667 37.2374 30.1659C37.0298 29.6648 36.9754 29.1134 37.0813 28.5815C37.1871 28.0495 37.4483 27.5609 37.8319 27.1773C38.2155 26.7938 38.7043 26.5326 39.2363 26.4268C39.7684 26.321 40.3199 26.3753 40.8211 26.5829C41.3223 26.7904 41.7506 27.1419 42.052 27.5929C42.3534 28.0439 42.5143 28.5741 42.5143 29.1164C42.5143 29.8438 42.2253 30.5413 41.7109 31.0555C41.1965 31.5698 40.4989 31.8588 39.7714 31.8588ZM39.7714 27.7453C39.5002 27.7453 39.235 27.8257 39.0095 27.9764C38.784 28.127 38.6082 28.3412 38.5044 28.5917C38.4006 28.8423 38.3734 29.118 38.4263 29.3839C38.4793 29.6499 38.6099 29.8942 38.8017 30.086C38.9935 30.2778 39.2378 30.4083 39.5039 30.4613C39.7699 30.5142 40.0457 30.487 40.2962 30.3832C40.5468 30.2794 40.761 30.1037 40.9117 29.8782C41.0624 29.6527 41.1429 29.3876 41.1429 29.1164C41.1429 28.7528 40.9984 28.404 40.7412 28.1469C40.484 27.8898 40.1352 27.7453 39.7714 27.7453Z" fill="currentColor"/>
        <path d="M10.3001 31.8588C9.75763 31.8588 9.22733 31.6979 8.77627 31.3966C8.32521 31.0953 7.97365 30.667 7.76605 30.1659C7.55845 29.6648 7.50413 29.1134 7.60996 28.5815C7.7158 28.0495 7.97703 27.5609 8.36062 27.1773C8.74422 26.7938 9.23295 26.5326 9.76501 26.4268C10.2971 26.321 10.8486 26.3753 11.3498 26.5829C11.851 26.7904 12.2793 27.1419 12.5807 27.5929C12.8821 28.0439 13.043 28.5741 13.043 29.1164C13.043 29.8438 12.754 30.5413 12.2396 31.0555C11.7252 31.5698 11.0276 31.8588 10.3001 31.8588ZM10.3001 27.7453C10.0289 27.7453 9.76372 27.8257 9.53819 27.9764C9.31266 28.127 9.13688 28.3412 9.03308 28.5917C8.92928 28.8423 8.90212 29.118 8.95504 29.3839C9.00796 29.6499 9.13857 29.8942 9.33037 30.086C9.52217 30.2778 9.76653 30.4083 10.0326 30.4613C10.2986 30.5142 10.5743 30.487 10.8249 30.3832C11.0755 30.2794 11.2897 30.1037 11.4404 29.8782C11.5911 29.6527 11.6715 29.3876 11.6715 29.1164C11.6715 28.7528 11.5271 28.404 11.2699 28.1469C11.0127 27.8898 10.6638 27.7453 10.3001 27.7453Z" fill="currentColor"/>
        <path d="M31.5429 21.5751L0.685714 21.5751C0.503852 21.5751 0.329437 21.5029 0.200841 21.3743C0.0722447 21.2458 0 21.0714 0 20.8896C0 20.7077 0.0722447 20.5334 0.200841 20.4048C0.329437 20.2762 0.503852 20.204 0.685714 20.204L31.5429 20.204C31.7247 20.204 31.8991 20.2762 32.0277 20.4048C32.1563 20.5334 32.2286 20.7077 32.2286 20.8896C32.2286 21.0714 32.1563 21.2458 32.0277 21.3743C31.8991 21.5029 31.7247 21.5751 31.5429 21.5751Z" fill="currentColor"/>
    </symbol>

    <symbol viewBox="0 0 18 25" fill="none" id="geolocation">
        <path d="M8.68042 3.94629C7.84533 3.94629 7.02899 4.19392 6.33464 4.65787C5.64029 5.12182 5.09911 5.78125 4.77953 6.55278C4.45996 7.3243 4.37634 8.17326 4.53926 8.99231C4.70218 9.81135 5.10431 10.5637 5.69481 11.1542C6.28531 11.7447 7.03765 12.1468 7.85669 12.3097C8.67574 12.4727 9.5247 12.389 10.2962 12.0695C11.0677 11.7499 11.7272 11.2087 12.1911 10.5144C12.6551 9.82 12.9027 9.00367 12.9027 8.16858C12.9027 7.04876 12.4579 5.9748 11.666 5.18297C10.8742 4.39113 9.80024 3.94629 8.68042 3.94629ZM8.68042 10.9171C8.13681 10.9171 7.60541 10.7559 7.15341 10.4539C6.70142 10.1519 6.34913 9.72263 6.1411 9.2204C5.93307 8.71817 5.87864 8.16553 5.98469 7.63236C6.09074 7.0992 6.35252 6.60946 6.73691 6.22507C7.1213 5.84067 7.61104 5.5789 8.14421 5.47285C8.67737 5.3668 9.23001 5.42123 9.73224 5.62926C10.2345 5.83729 10.6637 6.18957 10.9657 6.64157C11.2678 7.09356 11.429 7.62497 11.429 8.16858C11.427 8.89626 11.1366 9.59347 10.6213 10.1073C10.1061 10.6212 9.4081 10.9098 8.68042 10.9098V10.9171Z" fill="currentColor"/>
        <path d="M8.68038 0.468262C6.38516 0.470179 4.18396 1.38028 2.55755 2.99979C0.931137 4.6193 0.0116797 6.81661 0 9.1118C0 12.553 1.93061 15.4342 3.34541 17.5343L3.60332 17.9174C5.01095 19.9576 6.52102 21.9251 8.12773 23.8124L8.68775 24.4683L9.24778 23.8124C10.8543 21.9249 12.3643 19.9574 13.7722 17.9174L14.0301 17.5269C15.4375 15.4268 17.3681 12.553 17.3681 9.1118C17.3564 6.81533 16.436 4.61691 14.808 2.99719C13.18 1.37747 10.9769 0.468232 8.68038 0.468262ZM12.7995 16.6795L12.5342 17.07C11.2668 18.9712 9.58674 21.1007 8.68038 22.1545C7.81087 21.1007 6.09395 18.9712 4.82653 17.07L4.56862 16.6795C3.26435 14.7341 1.47375 12.074 1.47375 9.08232C1.47375 8.13593 1.66015 7.19881 2.02232 6.32447C2.38449 5.45012 2.91532 4.65566 3.58452 3.98647C4.25372 3.31727 5.04817 2.78643 5.92252 2.42426C6.79687 2.0621 7.73399 1.87569 8.68038 1.87569C9.62677 1.87569 10.5639 2.0621 11.4382 2.42426C12.3126 2.78643 13.107 3.31727 13.7762 3.98647C14.4454 4.65566 14.9763 5.45012 15.3384 6.32447C15.7006 7.19881 15.887 8.13593 15.887 9.08232C15.887 12.1035 14.1038 14.7636 12.7995 16.6795Z" fill="currentColor"/>
    </symbol>

    <svg viewBox="0 0 24 18" fill="none" id="mailbox">
        <path fill-rule="evenodd" clip-rule="evenodd" d="M1.6 0C1.17565 0 0.768687 0.168571 0.468629 0.468629C0.168571 0.768687 0 1.17565 0 1.6L0 16C0 16.4243 0.168571 16.8313 0.468629 17.1314C0.768687 17.4314 1.17565 17.6 1.6 17.6H22.4C22.8243 17.6 23.2313 17.4314 23.5314 17.1314C23.8314 16.8313 24 16.4243 24 16V1.6C24 1.17565 23.8314 0.768687 23.5314 0.468629C23.2313 0.168571 22.8243 0 22.4 0H1.6ZM1.6 1.6H22.4V3.08C22.2634 3.07983 22.1296 3.11869 22.0144 3.192L12 9.5472L1.9856 3.192C1.87036 3.11869 1.73658 3.07983 1.6 3.08V1.6ZM1.6 4.6528V16H22.4V4.6528L12.3856 11.008C12.2703 11.0811 12.1365 11.12 12 11.12C11.8635 11.12 11.7297 11.0811 11.6144 11.008L1.6 4.6528Z" fill="currentColor"/>
    </svg>

</svg>
